<svg height="38" width="100" xmlns="http://www.w3.org/2000/svg" viewBox="0 0 100 38"><path fill="#d1dcd9" fill-rule="evenodd" d="M1.62 16.72c.61-.03 1.22-.01 1.83-.01.81 0 .82-.03.93-.86.12-.88.26-1.76.4-2.64.33-2.07.64-4.14 1-6.2.06-.36.01-.76.28-1.09.01 1.16.14 2.31.16 3.47.04 2.21.09 4.42.12 6.63 0 .5.17.74.71.7.4-.04.8-.03 1.2 0 .33.01.49-.14.58-.43L11.5 8.4c.29-.86.59-1.72.88-2.58.19.65-.03 1.25-.12 1.86-.41 2.84-.87 5.67-1.31 8.51-.06.36.04.54.44.52.67-.01 1.34 0 2 0 .91 0 .93-.04 1.06-.94.44-2.89.88-5.78 1.33-8.68.32-1.99.64-3.98.97-5.96.07-.46-.03-.66-.55-.65-1.34.04-2.67.03-4.01.01-.39-.01-.59.13-.7.5-.76 2.39-1.52 4.79-2.29 7.18-.17.54-.36 1.08-.57 1.7-.17-.27-.11-.46-.11-.64-.06-2.72.07-5.45-.1-8.17-.03-.48-.21-.58-.63-.57C6.61.51 5.42.52 4.24.48c-.49-.01-.67.18-.74.64-.33 2.16-.68 4.31-1.02 6.47-.45 2.85-.91 5.7-1.37 8.55-.07.44.07.59.51.58zm0 0M98.72.49c-.75.01-1.49.03-2.23 0-.49-.02-.67.17-.73.64-.13 1.12-.3 2.22-.47 3.33-.04.32-.19.34-.41.13-.11-.1-.21-.22-.32-.32-1.1-1.03-2.37-1.23-3.75-.73-1.36.49-2.22 1.55-2.89 2.78a9.883 9.883 0 0 0-1.18 4.03c-.12 1.53-.03 3.05.73 4.44.4.74.94 1.36 1.71 1.7 1.44.65 2.78.44 4-.56.1-.07.17-.23.33-.16.11.04.09.16.07.25-.13.65.24.74.76.69.24-.02.49 0 .74 0 .32 0 .65-.02.97 0 .46.04.69-.1.76-.6.16-1.28.37-2.56.57-3.83.58-3.78 1.15-7.55 1.75-11.32.06-.4-.09-.47-.41-.47zm-4.8 11.29c-.22.6-.62 1.06-1.12 1.41-1.08.76-2.35.1-2.52-1.29-.04-.35-.01-.72-.01-1.08-.08-1.18.17-2.28.82-3.26.76-1.15 2.08-1.3 2.83-.36.33.4.41.9.45 1.39.09 1.09-.06 2.16-.45 3.19zm0 0M89.35 20.5c-.74 0-1.49.05-2.23-.04-.29-.04-.37.19-.4.44-.16 1.15-.32 2.3-.47 3.44-.02.15.04.34-.15.4-.17.05-.26-.12-.37-.23-.4-.4-.78-.82-1.35-1.02-1.48-.51-3.11.05-4.17 1.45-1.4 1.85-1.95 3.97-1.99 6.24 0 .65.01 1.3.15 1.94.2.94.53 1.83 1.15 2.58 1.13 1.36 3.11 1.48 4.68.3.11-.08.19-.29.37-.2.16.09.08.28.07.42-.02.32.1.44.43.44.68-.02 1.37-.02 2.06-.01.31.01.44-.14.48-.43.27-1.84.54-3.67.81-5.52l.87-6.19c.16-1.17.33-2.33.51-3.49.05-.36-.05-.53-.45-.52zm-4.39 11.27c-.4 1.09-1.14 1.7-1.99 1.69-.75 0-1.25-.52-1.41-1.45-.2-1.26-.06-2.5.36-3.7.13-.37.3-.73.59-1.03.47-.49.98-.86 1.71-.63.72.23.98.83 1.09 1.48.19 1.23.09 2.46-.35 3.64zm0 0M78.79 15.91c.26-1.81.55-3.61.79-5.42.16-1.26.42-2.51.37-3.8-.06-1.66-1.16-3.01-2.75-3.34-1.79-.38-3.51-.06-5.22.43-.27.08-.36.23-.39.49-.1.67-.23 1.35-.33 2.02-.09.64-.07.66.57.48 1.27-.38 2.55-.56 3.88-.35.83.14 1.22.73.98 1.53-.07.25-.19.34-.45.29-.72-.13-1.43-.08-2.15.02-3.07.4-4.75 2.36-4.52 5.44.19 2.56 1.91 3.6 4.34 3.04.76-.18 1.36-.62 1.9-1.15.19.17.14.34.12.47-.06.5.14.7.65.66.43-.04.87-.01 1.31-.01.79 0 .78 0 .9-.8zm-2.67-4.14c-.13.52-.32 1.02-.65 1.45-.45.59-1.21.9-1.85.75-.56-.13-.76-.54-.84-1.04-.12-.66.27-1.43.87-1.79.39-.23.99-.36 1.71-.36.88-.01.99.12.76.99zm0 0M22.23 8.17c-1.41-.04-2.79.07-4.03.8-2.05 1.2-2.5 3.21-2.16 5.4.09.57.37 1.06.72 1.53 1 1.32 3.31 1.15 4.47.44.33-.21.64-.46 1.05-.75 0 .24.02.37 0 .5-.08.47.09.66.58.63.57-.04 1.15-.01 1.72-.01.33 0 .5-.1.54-.49.15-1.22.37-2.44.52-3.67.23-1.96.71-3.89.64-5.89-.06-1.73-1.11-2.99-2.81-3.32-1.73-.34-3.39-.03-5.05.43-.36.1-.44.33-.49.62-.12.71-.22 1.42-.34 2.14-.04.28.03.38.34.29.79-.23 1.59-.4 2.4-.46.77-.06 1.53-.1 2.25.23.46.21.65.81.47 1.39-.17.51-.54.19-.82.19zm.36 2.79c-.1.99-.36 1.99-1.21 2.62-.74.55-1.67.49-2.04-.11-.42-.71-.14-1.98.57-2.41.56-.33 1.16-.56 1.86-.56h.52c.21 0 .32.25.3.46zm0 0M41.74 12.59c.26 1.77 1.13 3.17 2.85 3.85 1.88.74 3.81.52 5.72.04.26-.07.36-.29.4-.52.14-.76.28-1.53.38-2.3.08-.6.01-.62-.55-.41-1.43.55-2.87.89-4.38.3-.79-.3-1.25-1.02-1.25-1.86 0-.36.13-.46.47-.46.23.01.47.01.7.01.7.01 1.4 0 2.1 0 .67 0 1.35-.01 2.02 0 .22 0 .45 0 .67.01.39.01.59-.09.68-.49.27-1.31.41-2.64.2-3.96-.18-1.11-.66-2.11-1.61-2.79-2.15-1.55-5.24-.96-6.82 1.29-1.55 2.21-1.96 4.67-1.58 7.29zm5.68-6.36c.88.07 1.59 1.13 1.35 1.97-.08.25-.24.31-.48.3-.43-.01-.87 0-1.31 0h-1.36c-.22 0-.36-.05-.36-.32.03-.98 1.19-2.04 2.16-1.95zm0 0M74.57 23.86c-2.54-1.08-5.39 0-6.68 2.45-.78 1.5-1.13 3.09-1.1 4.78 0 .61 0 1.22.11 1.82.26 1.41.76 2.68 1.99 3.53 2.18 1.52 5.97.83 7.39-2.03.56-1.13.84-2.31.96-3.56.15-1.48.13-2.92-.39-4.33-.42-1.16-1.11-2.16-2.28-2.66zm-.55 5.39c-.01 1.56-.16 2.84-.93 3.96-.72 1.04-2.08.97-2.65-.12-.84-1.62-.32-4.7 1.01-5.97.75-.71 1.74-.53 2.22.38.33.64.37 1.31.35 1.75zm0 0M40.36 23.61c-.69.02-1.38.04-2.06-.01-.51-.03-.72.16-.79.65-.27 1.93-.54 3.87-.84 5.8-.14.88-.41 1.74-.97 2.47-.41.53-1.16.78-1.73.59-.49-.17-.74-.65-.74-1.41-.01-1.19.28-2.34.42-3.51.16-1.37.41-2.74.61-4.11.04-.3-.08-.47-.41-.46-.51 0-1.03-.01-1.54 0-1.77.01-1.29-.22-1.56 1.46-.32 1.89-.54 3.8-.79 5.7-.18 1.4-.18 2.8.29 4.16.36 1 .96 1.83 2.06 2.02 1.37.23 2.45-.36 3.31-1.4.15-.18.24-.43.56-.49-.03.45-.04.86-.11 1.26-.05.28.04.35.28.35.78-.01 1.57-.01 2.35 0 .21 0 .36-.06.38-.32.06-.66.13-1.32.22-1.97.33-2.35.66-4.7 1-7.05.16-1.09.33-2.17.5-3.26.05-.35-.09-.48-.44-.47zm0 0M10.34 20.61c-1.64-.57-3.3-.67-4.97-.22-1.28.34-2.21 1.14-2.79 2.36-.33.68-.49 1.4-.56 2.14-.18 1.92.33 3.59 2.2 4.65.62.35 1.28.66 1.79 1.21.86.92.55 2.43-.64 2.85-1.31.45-2.56.21-3.74-.45-.37-.22-.49-.14-.56.25-.16.83-.32 1.64-.52 2.46-.08.32-.01.48.31.6 1.07.37 2.12.74 3.32.65.22 0 .49.02.76 0 1.99-.22 3.57-1.06 4.37-3 .41-.98.5-2.02.46-3.08-.08-1.65-.71-2.97-2.19-3.83-.56-.32-1.12-.64-1.66-1.01-.56-.38-.72-.97-.6-1.62.12-.61.55-.95 1.15-1.02 1.01-.13 2.01-.17 2.95.33.6.32.62.3.78-.37.18-.72.31-1.45.51-2.16.11-.4.01-.6-.37-.74zm0 0M60.07 12.96c.64 2.38 2.65 4.08 5.48 4 .8.04 1.59-.17 2.39-.37.2-.05.4-.12.44-.38.16-1.03.32-2.07.47-3.1.04-.28-.03-.4-.35-.23-.53.27-1.09.46-1.67.59-1.54.35-2.96-.4-3.43-1.91-.7-2.18-.33-4.27.86-6.17.82-1.33 2.09-1.9 3.67-1.6.63.11 1.22.3 1.78.6.33.17.47.11.53-.28.12-.9.28-1.8.42-2.7.04-.26-.03-.41-.29-.53-.44-.21-.9-.3-1.36-.43-2.76-.82-5.53.02-7.22 2.34-2.23 3.09-2.69 6.54-1.72 10.17zm0 0M52.57 23.39c-2.09-.05-3.47 1.08-4.41 2.81-1.15 2.11-1.41 4.4-1.04 6.75.22 1.37.76 2.63 2.02 3.37 1.93 1.16 3.97.94 6.01.31.17-.06.26-.21.29-.39.12-.81.21-1.62.36-2.42.1-.53-.07-.56-.48-.35-.99.51-2.06.63-3.16.56-1.29-.08-2.1-.91-2.11-2.09 0-.4.15-.55.54-.54h.32c.73.01 1.46 0 2.2 0 .86 0 1.71 0 2.57.01.26 0 .45-.03.5-.33.35-1.75.57-3.5-.08-5.23-.56-1.48-1.94-2.43-3.53-2.46zm1.02 5.2c-.1.19-.27.22-.45.22h-2.51c-.19 0-.32-.08-.31-.32.04-.99 1.09-2.02 2.05-1.99.89.03 1.63 1.3 1.22 2.09zm0 0M20.18 27.48c-.13-1.3-.52-2.51-1.64-3.31-1.98-1.42-4.72-.88-6.14 1.19-1.63 2.36-2 4.99-1.52 7.75.23 1.33.79 2.5 2.02 3.23 1.91 1.14 3.9.9 5.91.31.19-.06.31-.21.34-.42.12-.79.24-1.57.35-2.36.02-.16.17-.36.01-.49-.18-.13-.36.04-.53.12-1.2.53-2.43.74-3.72.42-.96-.24-1.53-1.04-1.49-2.03.01-.34.12-.5.47-.49 1.71.05 3.43-.09 5.14.08.32.03.52-.09.56-.42.13-.88.31-1.76.25-2.69 0-.28.03-.58-.01-.89zm-3.72 1.33h-.8c-.42 0-.84-.03-1.25-.03-.33-.01-.45-.17-.32-.49.18-.44.33-.9.63-1.28.36-.46 1.09-.68 1.71-.51.49.15.87.74.89 1.36.04.93.04.95-.86.95zm0 0M96.95 23.88c-1.93-1.05-4.35-.41-5.66 1.46-1.68 2.4-2.04 5.08-1.53 7.9.23 1.25.79 2.36 1.92 3.05 1.95 1.2 4 .96 6.06.34.15-.05.26-.18.28-.34.12-.85.25-1.69.36-2.54.06-.4-.11-.47-.45-.29-.96.49-1.99.63-3.05.58-1.32-.06-2-.67-2.25-1.96-.12-.57.13-.68.59-.68h.62c.61.01 1.22 0 1.84 0 .63 0 1.26-.01 1.89 0 .21 0 .42 0 .63.01.38.02.52-.13.6-.48.27-1.19.37-2.39.25-3.58-.16-1.45-.75-2.74-2.1-3.47zm-.76 4.63c-.06.18-.18.24-.35.24h-2.63c-.16 0-.29-.03-.31-.24-.06-.91 1.01-2.05 1.93-2.04.98 0 1.7 1.09 1.36 2.04zm0 0M65.76 33.05c-.32.17-.65.31-.99.44-1.53.57-2.92-.02-3.59-1.5-.33-.73-.4-1.5-.35-2.26-.07-1.18.18-2.26.57-3.33.62-1.66 1.95-2.64 3.52-2.56.74.04 1.41.31 2.05.66.29.15.46.13.5-.24.07-.58.16-1.16.23-1.75.16-1.44.16-1.44-1.28-1.9-2.65-.84-5.28.01-6.83 2.31-2.14 3.19-2.44 6.71-1.55 10.34a4.9 4.9 0 0 0 2.23 3.07c1.67 1.02 3.41.88 5.17.34.22-.07.29-.2.32-.42.14-.98.29-1.95.44-2.92.06-.43-.1-.46-.44-.28zm0 0M26.8 16.63c.86.16 1.73.26 2.61.22.7-.02 1.4.03 2.1-.17 2-.54 3.03-1.83 3.09-3.91.04-1.34-.26-2.54-1.37-3.41-.53-.41-1.14-.68-1.73-.99-.46-.24-.87-.52-.72-1.14.11-.5.53-.8 1.17-.8.76 0 1.52-.07 2.27.1.31.07.49-.01.53-.39.08-.73.19-1.47.34-2.19.09-.42-.06-.57-.44-.59-1.01-.05-2-.21-3.02-.14-2.01.14-3.81.94-4.25 3.38-.29 1.66.04 3.27 1.64 4.3.48.31.98.57 1.49.84.5.27.92.59.78 1.24-.14.64-.68.76-1.21.89-.11.02-.22.01-.34.02-.95.07-1.85-.15-2.75-.4-.33-.09-.48-.08-.53.32-.07.66-.21 1.31-.31 1.97-.11.71-.09.72.65.85zm0 0M28.65 23.79c-2.16-.83-4.54-.09-5.89 1.62-1.31 1.67-1.86 3.55-1.77 5.64 0 .4-.04.81.01 1.2.16 1.61.72 3.06 2.03 4.07 1.45 1.11 3.06.93 4.67.36.26-.09.36-.29.39-.57.07-.74.16-1.47.26-2.2.02-.21.19-.45.02-.6-.22-.19-.42.07-.61.15-1.69.73-3.19-.13-3.46-1.92-.09-.58-.04-1.14.04-1.69.1-.72.25-1.44.73-2.02.96-1.15 2.01-1.34 3.51-.59.42.21.58.12.65-.32.08-.48.21-.96.31-1.44.28-1.24.29-1.24-.89-1.69zm0 0M36.56 16.64c1.18.57 2.38.29 3.55-.1.15-.05.2-.22.22-.38.11-.75.23-1.5.34-2.25.06-.46-.24-.38-.51-.33-1.1.21-1.58-.3-1.38-1.4.24-1.37.39-2.75.65-4.11.29-1.51-.1-1.29 1.39-1.29.35.01.53-.08.56-.46.05-.59.15-1.17.25-1.75.18-1.09.19-1.1-.92-1.09-.4.01-.67-.01-.5-.54.11-.3.14-.63.21-.95.07-.31-.04-.47-.38-.47-.1 0-.21.01-.31.01-.32 0-.63-.01-.95-.01-.4 0-.8.01-1.2 0-.32-.01-.5.14-.54.46-.07.47-.15.93-.23 1.4-.37 2.37-.74 4.73-1.1 7.09-.21 1.33-.49 2.66-.42 4.02.05.95.41 1.73 1.27 2.15zm0 0M58.28 7.34c.35.02.44-.16.52-.46.22-.9.44-1.81.82-2.66.11-.25.43-.57.21-.77-.26-.24-.69-.14-1.03-.03-.22.07-.41.21-.6.32-.51.29-.78.82-1.27 1.37.05-.48.05-.82.14-1.15.12-.43-.08-.49-.43-.49-.69.01-1.38.03-2.06 0-.4-.02-.55.16-.6.5-.19 1.24-.39 2.48-.58 3.72-.43 2.81-.85 5.63-1.3 8.44-.08.45.01.59.45.58.78-.01 1.57-.02 2.35.01.38.01.54-.13.59-.51.2-1.37.41-2.73.65-4.1.24-1.38.43-2.78 1.07-4.06.22-.44.55-.74 1.07-.71zm0 0M80.57 16.72c.74-.03 1.48-.04 2.23 0 .46.02.64-.17.71-.61.18-1.24.36-2.48.57-3.71.22-1.31.42-2.63.88-3.89.24-.66.57-1.21 1.4-1.18.27.01.37-.19.41-.4.22-1.09.54-2.14 1.02-3.14.16-.33.01-.43-.32-.45-.61-.03-1.12.19-1.54.62-.31.31-.61.65-.98 1.04-.03-.42.05-.72.12-1.02.08-.33-.04-.51-.41-.51-.59.02-1.18.01-1.77.01-.89 0-.86 0-.99.91-.3 2.12-.63 4.24-.96 6.36-.27 1.8-.57 3.6-.85 5.4-.06.38.05.58.48.57zm0 0M47.68 23.61c-.23-.23-.58-.14-.87-.06-.22.06-.41.21-.61.31-.55.29-.74.89-1.27 1.27.06-.33.13-.66.19-.99.06-.35-.05-.54-.45-.53-.63.02-1.26.02-1.89 0-.33-.01-.48.12-.52.45-.08.66-.21 1.31-.31 1.97-.29 2.06-.57 4.13-.87 6.2-.2 1.38-.41 2.77-.61 4.16-.04.26.06.39.34.39.8-.01 1.6 0 2.4 0 .28 0 .41-.12.44-.41.14-1.12.3-2.25.47-3.38.2-1.39.39-2.78.8-4.13.21-.66.47-1.34 1.28-1.44.4-.05.49-.23.56-.57.16-.88.42-1.74.74-2.58.08-.21.39-.44.18-.66zm0 0"/></svg>