<svg height="40" width="130" xmlns="http://www.w3.org/2000/svg" viewBox="0 0 130 40"><path fill="#d1dcd9" fill-rule="evenodd" d="M63.59 18.52c.34.22.84.39 1.37.39.79 0 1.24-.41 1.24-1.02 0-.55-.31-.87-1.12-1.17-.97-.36-1.57-.87-1.57-1.7 0-.93.77-1.62 1.92-1.62.61 0 1.06.14 1.31.29l-.21.63c-.18-.12-.58-.28-1.12-.28-.81 0-1.12.48-1.12.89 0 .56.36.83 1.18 1.15 1.01.4 1.51.87 1.51 1.75 0 .92-.67 1.73-2.08 1.73-.57 0-1.2-.18-1.52-.39l.21-.65M70.78 16.89c.01-.48-.2-1.26-1.06-1.26-.8 0-1.14.72-1.2 1.26h2.26zm-2.27.56c.02 1.05.68 1.49 1.46 1.49.56 0 .9-.1 1.19-.22l.14.55c-.27.13-.75.28-1.43.28-1.31 0-2.11-.88-2.11-2.16 0-1.3.77-2.32 2.02-2.32 1.39 0 1.76 1.23 1.76 2.02 0 .16-.01.28-.03.37l-3-.01zm0 0M75.55 19.31c-.2.09-.65.25-1.23.25-1.29 0-2.13-.88-2.13-2.2 0-1.32.9-2.28 2.3-2.28.46 0 .87.11 1.08.23l-.18.59c-.18-.1-.47-.2-.9-.2-.98 0-1.51.73-1.51 1.63 0 .99.64 1.6 1.49 1.6.44 0 .73-.11.95-.21l.13.59M80.04 18.29c0 .44.02.83.04 1.17h-.69l-.04-.7h-.02c-.19.34-.66.8-1.42.8-.67 0-1.47-.38-1.47-1.88v-2.5h.77v2.36c0 .81.26 1.37.96 1.37.52 0 .89-.36 1.03-.72.04-.1.07-.24.07-.4v-2.61h.77v3.11M81.35 16.51c0-.5-.01-.93-.04-1.33h.68l.04.84h.03c.19-.58.67-.94 1.19-.94.08 0 .14.01.21.03v.72c-.09-.01-.17-.02-.27-.02-.55 0-.94.42-1.05 1-.01.11-.02.23-.02.37v2.28h-.78l.01-2.95M85.04 19.46h-.78v-4.28h.78v4.28zm-.41-5.07c-.29 0-.48-.23-.48-.51 0-.27.2-.49.5-.49s.5.22.5.49c0 .28-.2.51-.5.51h-.02zm0 0M87.27 14.15v1.03h1.12v.59h-1.12v2.31c0 .53.15.83.59.83.21 0 .33-.02.45-.05l.03.59c-.15.05-.39.11-.69.11-.36 0-.65-.13-.84-.33-.21-.24-.3-.62-.3-1.13v-2.33h-.66v-.59h.66v-.79l.76-.24M89.62 15.18l.93 2.53c.11.28.21.62.29.87h.01c.08-.25.17-.58.28-.89l.85-2.51h.82l-1.17 3.05c-.56 1.47-.94 2.22-1.47 2.69-.38.33-.76.46-.95.49l-.2-.65c.2-.05.46-.18.68-.38.22-.17.47-.47.66-.87.03-.08.06-.13.06-.18 0-.05-.01-.11-.06-.2l-1.58-3.95h.85M63.59 27.36c.34.23.84.39 1.37.39.79 0 1.24-.4 1.24-1.01 0-.55-.31-.88-1.12-1.18-.97-.35-1.57-.87-1.57-1.7 0-.93.77-1.62 1.92-1.62.61 0 1.06.15 1.31.3l-.21.62c-.18-.11-.58-.28-1.12-.28-.81 0-1.12.49-1.12.89 0 .56.36.84 1.18 1.15 1.01.4 1.51.88 1.51 1.76 0 .92-.67 1.72-2.08 1.72-.57 0-1.2-.18-1.52-.39l.21-.65M68.92 23v1.02h1.12v.6h-1.12v2.3c0 .54.15.84.59.84.21 0 .33-.02.45-.06l.03.6c-.15.05-.39.1-.69.1-.36 0-.65-.12-.84-.32-.21-.24-.3-.62-.3-1.13v-2.33h-.66v-.6h.66v-.78l.76-.24M73.17 26.12c-.85-.02-1.82.13-1.82.96 0 .52.34.75.73.75.56 0 .93-.36 1.05-.72.03-.08.04-.17.04-.25v-.74zm.76 1.16c0 .37.02.73.06 1.02h-.7l-.07-.53h-.03c-.23.33-.69.63-1.31.63-.86 0-1.3-.61-1.3-1.23 0-1.03.91-1.6 2.57-1.59v-.09c0-.35-.1-1-.97-.99-.41 0-.83.12-1.13.32l-.17-.52c.35-.22.87-.37 1.41-.37 1.32 0 1.64.89 1.64 1.75v1.6zm0 0M75.17 25.18c0-.45 0-.8-.03-1.16h.69l.05.7h.01c.21-.4.71-.79 1.42-.79.59 0 1.51.35 1.51 1.82v2.55h-.78v-2.46c0-.69-.26-1.28-.99-1.28-.5 0-.9.36-1.04.8-.04.1-.06.24-.06.36v2.58h-.78v-3.12M83 25.76c0-.1 0-.22-.03-.33-.12-.49-.54-.9-1.13-.9-.8 0-1.28.71-1.28 1.65 0 .88.43 1.59 1.27 1.59.52 0 1-.35 1.14-.92.03-.11.03-.22.03-.34v-.75zm.78-3.74v5.18c0 .38.01.81.03 1.1h-.69l-.04-.74h-.02c-.23.48-.75.84-1.45.84-1.03 0-1.84-.87-1.84-2.18-.01-1.43.89-2.29 1.92-2.29.66 0 1.11.3 1.29.64H83v-2.55h.78zm0 0M87.33 26.12c-.85-.02-1.82.13-1.82.96 0 .52.34.75.73.75.57 0 .93-.36 1.05-.72.03-.08.04-.17.04-.25v-.74zm.76 1.16c0 .37.02.73.06 1.02h-.7l-.07-.53h-.02c-.24.33-.7.63-1.31.63-.87 0-1.31-.61-1.31-1.23 0-1.03.92-1.6 2.57-1.59v-.09c0-.35-.1-1-.97-.99-.41 0-.83.12-1.12.32l-.18-.52c.35-.22.88-.37 1.41-.37 1.32 0 1.64.89 1.64 1.75v1.6zm0 0M89.35 25.36c0-.51-.02-.94-.04-1.34h.68l.03.84h.03c.2-.57.67-.93 1.2-.93.08 0 .14 0 .21.02v.73c-.09-.01-.16-.02-.28-.02-.54 0-.93.42-1.04.99-.02.11-.02.24-.02.37v2.28h-.79l.02-2.94M95.1 25.76c0-.1-.01-.22-.04-.33-.12-.49-.54-.9-1.12-.9-.81 0-1.28.71-1.28 1.65 0 .88.43 1.59 1.26 1.59.52 0 1-.35 1.14-.92.03-.11.04-.22.04-.34v-.75zm.77-3.74v5.18c0 .38.01.81.04 1.1h-.7l-.04-.74h-.01c-.24.48-.75.84-1.45.84-1.04 0-1.84-.87-1.84-2.18-.01-1.43.88-2.29 1.92-2.29.66 0 1.1.3 1.29.64h.02v-2.55h.77zm0 0M97.06 27.52c.24.14.65.3 1.03.3.56 0 .82-.28.82-.64 0-.37-.21-.58-.78-.79-.78-.28-1.14-.7-1.14-1.21 0-.69.57-1.25 1.47-1.25.44 0 .82.11 1.05.26l-.18.56c-.17-.1-.48-.25-.88-.25-.46 0-.71.27-.71.58 0 .37.25.53.8.74.74.27 1.13.64 1.13 1.29 0 .76-.59 1.29-1.59 1.29-.47 0-.91-.12-1.21-.3l.19-.58M106.73 28.12c-.28.14-.85.28-1.58.28-1.68 0-2.93-1.06-2.93-3.02 0-1.88 1.26-3.14 3.11-3.14.73 0 1.21.16 1.41.27l-.19.63c-.28-.14-.7-.25-1.19-.25-1.4 0-2.33.89-2.33 2.46 0 1.47.84 2.4 2.28 2.4.48 0 .96-.1 1.27-.25l.15.62M109.33 27.82c.74 0 1.3-.7 1.3-1.67 0-.73-.36-1.64-1.28-1.64s-1.31.85-1.31 1.66c0 .94.53 1.65 1.28 1.65h.01zm-.03.58c-1.15 0-2.05-.85-2.05-2.2 0-1.43.95-2.27 2.12-2.27 1.23 0 2.06.89 2.06 2.19 0 1.59-1.1 2.28-2.12 2.28h-.01zm0 0M116 27.14c0 .44.01.83.03 1.16h-.68l-.05-.7h-.02c-.19.35-.65.8-1.42.8-.66 0-1.47-.38-1.47-1.88v-2.5h.78v2.36c0 .82.25 1.37.95 1.37.52 0 .89-.36 1.03-.71.05-.11.07-.25.07-.4v-2.62h.78v3.12M117.29 25.18c0-.45-.01-.8-.03-1.16h.68l.05.7h.02c.21-.4.7-.79 1.41-.79.6 0 1.51.35 1.51 1.82v2.55h-.77v-2.46c0-.69-.26-1.28-1-1.28-.5 0-.9.36-1.04.8-.03.1-.05.24-.05.36v2.58h-.78v-3.12M125.25 28.16c-.2.09-.65.24-1.23.24-1.29 0-2.13-.87-2.13-2.19 0-1.32.9-2.28 2.3-2.28.46 0 .87.11 1.08.22l-.18.6c-.19-.1-.48-.2-.9-.2-.98 0-1.51.73-1.51 1.62 0 .99.63 1.6 1.48 1.6.45 0 .74-.1.96-.2l.13.59M126.94 28.3h-.78v-4.28h.78v4.28zm-.41-5.06c-.29 0-.48-.23-.48-.51 0-.27.2-.5.5-.5s.49.23.49.5c0 .28-.19.51-.5.51h-.01zm0 0M128.23 28.3h.78v-6.28h-.78v6.28zm0 0M59.63 25.46L13.85 39.85.49 3.53 48.56.84l11.07 24.62zm0 0"/><path fill="#fefefe" fill-rule="evenodd" d="M25.02 18.18c0 .92-.2 1.72-.62 2.43-.4.7-.98 1.28-1.72 1.75-.73.47-1.62.82-2.66 1.05-1.04.23-2.2.35-3.46.35h-.93v4.68H9.67v-15.6h6.98c2.6 0 4.65.45 6.14 1.33 1.48.88 2.23 2.22 2.23 4.01zm-5.72.06c0-1.35-1-2.03-3-2.03h-.73v4.18h.67c.99 0 1.75-.17 2.27-.52.53-.35.79-.89.79-1.63zm0 0M39.73 28.42c-.92.18-1.95.27-3.11.27-1.65 0-3.12-.19-4.41-.57-1.29-.38-2.38-.91-3.28-1.6-.9-.7-1.58-1.54-2.04-2.53-.47-1-.7-2.11-.7-3.33 0-1.2.24-2.3.74-3.3.5-.99 1.2-1.84 2.11-2.55.9-.71 1.98-1.25 3.23-1.64 1.25-.38 2.63-.58 4.13-.58 1.16 0 2.24.04 3.18.24.94.21.96.24 1.71.51l-.01 4.18c-.59-.33-1.25-.6-1.98-.82a8.09 8.09 0 0 0-2.35-.33c-1.34 0-2.43.37-3.28 1.1-.84.74-1.26 1.8-1.26 3.17 0 .71.13 1.33.39 1.86.27.54.62.98 1.07 1.34.45.35.97.62 1.57.8.6.18 1.25.27 1.94.27.71 0 1.41-.07 2.09-.22.68-.16 1.41-.37 2.18-.66l.01 3.91c-.94.27-1.02.31-1.93.48M44.1 28.44h5.98v-15.6H44.1v15.6zm0 0M50.72 7.96c0 1.05-.35 1.87-1.04 2.47-.7.6-1.56.9-2.59.9-1.02 0-1.88-.3-2.58-.9-.69-.6-1.04-1.42-1.04-2.47 0-1.07.35-1.91 1.04-2.51.7-.6 1.56-.89 2.58-.89 1.03 0 1.89.29 2.59.89.69.6 1.04 1.44 1.04 2.51"/></svg>