<svg height="38" width="149" xmlns="http://www.w3.org/2000/svg" viewBox="0 0 149 38"><path fill="#d1dcd9" fill-rule="evenodd" d="M64.26 13.42c-.81-.43-1.9-.73-3.21-.73-3.08 0-4.92 1.44-5.68 2.02l1.11-6.53h-4.35L49.1 26.06h4.35l1.65-9.75c1.09-.84 2.42-1.55 3.86-1.55.75 0 1.4.23 1.83.61.8.71.65 1.77.44 2.99l-1.3 7.7h4.35l1.45-8.59c.2-1.14.5-2.93-1.47-4.05zm11.52-.89c-4.97 0-6.65 2.23-7.58 3.47l1.04.44c.77-.69 2.15-1.93 4.93-1.93 1.25 0 3.06.33 3.61 1.7.22.54.21 1.12.15 1.68h.1l-.69 4.03h-.07l-.26 1.51c-.92.43-2.05.93-3.59.93-2.19 0-2.81-1.19-2.62-2.3.28-1.65 2.12-2.43 4.04-2.43.6 0 1.11.06 1.57.16l.32-1.88c-.8-.17-1.61-.28-2.69-.28-3.89 0-7.35 1.67-7.86 4.66-.39 2.33 1.46 4.15 4.86 4.15 3.11 0 4.96-1.27 5.78-1.85l-.25 1.47h4.22l1.32-7.83c.21-1.19.46-2.91-.95-4.2-.82-.76-2.53-1.5-5.38-1.5zm38.16 12.42c-.33 0-1.64 0-2.23-1.14-.26-.43-.36-.97-.18-2.06l1-5.91h4.76l.46-2.75H113l.6-3.52h-4.35l-.6 3.52h-4.58l-3.97 6.46-.7 1.22c-.24-.69-.25-.81-.48-1.42l-2.27-6.26h-1.44l-5.65 7.65c-.12-.63-.16-.78-.29-1.37l-1.68-6.28h-4.55l4 13.07h1.6l5.7-7.55 3.14 7.55h1.57l6.73-10.32h2.4l-1.09 6.45c-.19 1.14-.22 2.28.84 3.19 1.1.99 2.83 1.06 3.61 1.06 2.16 0 3.44-.58 4.49-1.04l-.38-.81c-.55.13-1.03.26-1.71.26zm8.99-7.02c-.06.09-.19.36-.33 1.21-.06.33-.09.58-.1.77h11.6c.21-1.42.59-3.83-1.43-5.65-1.76-1.57-4.35-1.75-5.79-1.75-5.92 0-9.58 3.09-10.22 6.89-.68 3.98 1.95 7.19 7.97 7.19 5.76 0 7.55-2.66 8.51-4.08l-1.01-.4c-1.34 1.14-2.75 2.33-5.79 2.33-4.44 0-5.03-2.63-5.11-3.98-.02-.06-.1-.33.05-1.23.15-.91.35-1.27.38-1.33.71-1.49 1.65-3.26 4.77-3.26 3.27 0 3.27 2.12 3.27 3.29h-6.77zM45.5 9.57h-4.35L39 22.29c-.19 1.14-.22 2.28.83 3.19 1.11.99 2.83 1.06 3.62 1.06 2.16 0 3.43-.58 4.49-1.04l-.39-.81c-.54.13-1.02.26-1.71.26-.32 0-1.63 0-2.22-1.14-.26-.43-.36-.97-.18-2.06l1-5.91h3.52l.46-2.73H44.9l.6-3.54zm0 0M17.14.76C7.95.76.51 8.2.51 17.39c0 9.18 7.44 16.62 16.63 16.62 9.18 0 16.63-7.44 16.63-16.62C33.77 8.2 26.32.76 17.14.76zm0 29.95c-7.36 0-13.33-5.97-13.33-13.32 0-7.36 5.97-13.33 13.33-13.33s13.32 5.97 13.32 13.33c0 7.35-5.96 13.32-13.32 13.32zm1.6-21.44h-4.35l-2.15 12.72c-.19 1.14-.22 2.28.83 3.19 1.11.99 2.83 1.06 3.62 1.06 2.16 0 3.43-.58 4.49-1.03l-.38-.82c-.55.13-1.03.26-1.71.26-.33 0-1.64 0-2.23-1.14-.26-.43-.36-.96-.18-2.05l1-5.91h3.52l.47-2.74h-3.52l.59-3.54zm0 0M136.33 10.79h-1.09v2.81h-.91v-2.81h-1.09v-.68h3.09v.68zm4.21 2.81h-.9v-2.34l-.65 1.52h-.62l-.64-1.52v2.34h-.86v-3.49h1.05l.79 1.75.78-1.75h1.05v3.49zm0 0M145.48 29.13h-.82v2.11h-.68v-2.11h-.82v-.51h2.32v.51zm3.5 2.11h-.68v-1.75l-.48 1.14h-.46l-.49-1.14v1.75h-.64v-2.62h.79l.59 1.32.58-1.32h.79v2.62zm0 0M82.39 29.92c-.38 0-.73.26-.77.57-.02.15.04.3.15.41.12.1.29.17.47.17.38 0 .72-.27.76-.58.04-.31-.24-.57-.61-.57zm-1.31 5.61h1.24l.48-3.95h-1.23l-.49 3.95zm4.31-5.03h-1.23l-.13 1.08h-.75l-.08.61h.75l-.27 2.19c-.04.35-.04.69.27.97.33.3.81.33 1.04.33.61 0 .96-.18 1.26-.32l-.12-.25c-.15.04-.29.08-.48.08-.09 0-.47 0-.64-.35-.08-.13-.12-.29-.08-.62l.25-2.03h1.09l.07-.61h-1.08l.13-1.08zm1.95-.42l-.8 2.18.36.07 1.78-2.25h-1.34zM89.71 32c.93 0 1.12.4 1.18.54l.33-.08a.872.872 0 0 0-.29-.62c-.27-.26-.72-.43-1.35-.43-1.39 0-2.08.69-2.16 1.32-.09.72.6.95.78 1 .2.07.41.11.62.15.59.11.88.21.99.46.02.07.03.13.02.19 0 .03-.05.39-.58.53-.17.04-.32.05-.47.05-.52 0-.95-.14-1.18-.36-.12-.11-.16-.22-.2-.32l-.34.06c.01.19.03.48.31.75.18.17.62.45 1.55.45 1.36 0 2.1-.64 2.18-1.33a.943.943 0 0 0-.27-.81c-.24-.24-.59-.32-.84-.38-.17-.03-.34-.06-.52-.1-.4-.09-.82-.19-.77-.54.03-.26.33-.53 1.01-.53zm12.71-1.5h-1.23l-.13 1.08h-.76l-.07.61h.75l-.27 2.19c-.04.35-.04.69.27.97.33.3.81.33 1.04.33.61 0 .96-.18 1.26-.32l-.12-.25c-.15.04-.29.08-.48.08-.09 0-.46 0-.65-.35-.07-.13-.11-.29-.07-.62l.25-2.03h1.09l.07-.61h-1.08l.13-1.08zm2.78 1.57l.06-.49h-1.24l-.49 3.95h1.24l.38-3.07c.23-.11.52-.27.98-.27.34 0 .57.1.79.19l.11-.9c-.11-.01-.23-.02-.35-.02-.84 0-1.27.41-1.48.61zm4.89 2.52c-.29.24-.63.44-1.03.44-.61 0-.81-.36-.74-.87l.31-2.58h-1.24l-.33 2.72c-.05.36-.17 1.35 1.43 1.35.86 0 1.27-.37 1.54-.61l-.06.49h1.24l.49-3.95h-1.24l-.37 3.01zm4.5-2.59c.94 0 1.12.4 1.19.54l.33-.08c-.02-.15-.04-.38-.29-.62-.27-.26-.73-.43-1.36-.43-1.38 0-2.08.69-2.15 1.32-.09.72.59.95.77 1 .21.07.42.11.62.15.59.11.89.21.99.46.02.07.03.13.03.19-.01.03-.05.39-.59.53-.16.04-.32.05-.47.05-.52 0-.94-.14-1.18-.36-.11-.11-.15-.22-.2-.32l-.33.06c0 .19.03.48.31.75.18.17.62.45 1.55.45 1.36 0 2.09-.64 2.18-1.33a.943.943 0 0 0-.27-.81c-.24-.24-.59-.32-.85-.38-.17-.03-.34-.06-.51-.1-.41-.09-.82-.19-.78-.54.03-.26.34-.53 1.01-.53zm4.05-1.5h-1.24l-.13 1.08h-.75l-.07.61h.75l-.27 2.19c-.04.35-.04.69.27.97.32.3.81.33 1.03.33.61 0 .97-.18 1.27-.32l-.12-.25c-.16.04-.29.08-.48.08-.1 0-.47 0-.65-.35-.07-.13-.11-.29-.07-.62l.25-2.03h1.08l.08-.61h-1.09l.14-1.08zm5.33 0h-1.23l-.13 1.08h-.76l-.07.61h.75l-.27 2.19c-.04.35-.04.69.27.97.33.3.81.33 1.04.33.61 0 .96-.18 1.26-.32l-.12-.25c-.15.04-.29.08-.48.08-.09 0-.46 0-.64-.35-.08-.13-.12-.29-.08-.62l.25-2.03h1.09l.07-.61h-1.08l.13-1.08zm5.27 1.18c-.23-.14-.54-.23-.91-.23-.88 0-1.38.44-1.59.62l.24-1.99h-1.23l-.67 5.45h1.23l.37-2.97c.3-.26.67-.48 1.08-.48.21 0 .4.08.52.19.23.22.2.54.16.91l-.29 2.35h1.23l.32-2.62c.05-.35.11-.89-.46-1.23zm2.44-1.76c-.38 0-.73.26-.76.57-.02.15.03.3.15.41.12.1.28.17.47.17.38 0 .72-.27.76-.58.03-.31-.25-.57-.62-.57zm-1.3 5.61h1.23l.49-3.95h-1.24l-.48 3.95zm5.5-4.07c-.89 0-1.35.4-1.62.63l.06-.51h-1.23l-.49 3.95h1.24l.36-2.94c.24-.2.58-.49 1.09-.49.44 0 .64.24.69.46.03.14.01.27 0 .41l-.32 2.56h1.24l.33-2.67c.04-.33.06-.73-.25-1.04-.22-.21-.6-.36-1.1-.36zm5.8.12l-.05.42c-.17-.2-.5-.59-1.36-.59-1.17 0-2.14.79-2.29 2.02-.16 1.29.77 1.95 1.7 1.95.51 0 1.03-.19 1.35-.42.09-.06.17-.13.26-.21-.05.48-.12 1-.62 1.38-.15.12-.52.36-1.15.36-.52 0-.9-.18-1.11-.38-.09-.09-.16-.19-.27-.34l-.31.11c.03.19.08.48.36.73.3.29.89.49 1.62.49.77 0 1.5-.22 1.92-.54.62-.47.7-1.09.77-1.6l.42-3.38h-1.24zm-.34 2.72c-.18.16-.55.45-1.09.45-.57 0-1.07-.43-.96-1.32.11-.9.65-1.41 1.33-1.41.57 0 .78.31.94.53l-.22 1.75zm-45.5-2.89c-1.41 0-1.87.67-2.12 1.05l.3.14c.21-.21.59-.59 1.38-.59.35 0 .87.1 1.04.52.08.19.07.4.05.6-.35-.1-.64-.17-1.1-.17-1.1 0-2.06.51-2.17 1.42-.09.71.45 1.27 1.42 1.27.88 0 1.39-.39 1.61-.57l-.05.45h1.2l.29-2.39c.04-.36.1-.88-.32-1.28-.24-.23-.73-.45-1.53-.45zm.46 3.32c-.26.13-.57.28-1.01.28-.62 0-.81-.36-.77-.7.07-.5.58-.74 1.12-.74.32 0 .55.07.78.15l-.12 1.01zm0 0"/></svg>