<svg height="39" width="90" xmlns="http://www.w3.org/2000/svg" viewBox="0 0 90 39"><path fill="#d1dcd9" fill-rule="evenodd" d="M36.53 20.62l-4.49 12.11-.48-2.46c-1.12-3.02-3.54-6.18-6.36-7.47l4.11 15.56h4.85l7.23-17.74h-4.86M40.38 38.38l2.87-17.78h4.59l-2.87 17.78h-4.59M61.62 21.04c-.91-.36-2.34-.75-4.12-.75-4.54 0-7.73 2.42-7.75 5.87-.03 2.55 2.28 3.98 4.01 4.83 1.8.87 2.39 1.43 2.39 2.21-.02 1.19-1.43 1.73-2.75 1.73-1.84 0-2.81-.27-4.32-.93l-.59-.28-.65 3.97c1.08.5 3.06.93 5.12.95 4.82 0 7.95-2.39 7.99-6.07.02-2.03-1.21-3.56-3.86-4.83-1.6-.82-2.59-1.37-2.57-2.21 0-.73.83-1.52 2.63-1.52 1.5-.03 2.58.32 3.43.68l.41.2.63-3.85M73.39 20.62h-3.55c-1.1 0-1.92.31-2.41 1.48l-6.81 16.28h4.82s.79-2.19.97-2.67c.52 0 5.21.01 5.87.01.15.62.56 2.66.56 2.66h4.27l-3.72-17.76zm-5.66 11.46c.38-1.02 1.83-4.97 1.83-4.97-.03.04.37-1.03.61-1.7l.3 1.54s.89 4.24 1.07 5.13h-3.81zm0 0"/><path fill="#d1dcd9" fill-rule="evenodd" d="M27.87 20.61h-7.4l-.05.31c5.76 1.47 9.56 5.08 11.14 9.36l-1.61-8.17c-.28-1.13-1.08-1.46-2.08-1.5M6.58 16.31H3.66L.28 1.1 3.51.56l2.31 11.91L11.71.71h3.11l-8.24 15.6M21.8 11.34h-6.98c-.19 2.12.8 3.04 2.46 3.04 1.4 0 2.63-.52 3.95-1.35l-.01 2.11c-1.3.82-2.8 1.33-4.55 1.33-3.04 0-5.05-1.73-4.45-5.65.55-3.53 2.99-5.67 5.83-5.67 3.27 0 4.35 2.45 3.88 5.54-.04.22-.1.49-.13.65zm-4.1-4.32c-1.08 0-2.09.85-2.57 2.63h4.32c.08-1.69-.45-2.63-1.75-2.63zm0 0M26.35 10.01l-.96 6.24h-2.7l1.67-10.88h2.3v2.19c.92-1.26 2.16-2.32 3.86-2.41l.02 2.68c-1.71.11-3.24 1.01-4.19 2.18M30.5 16.25l1.68-10.88h2.7l-1.67 10.88H30.5zm3.33-12.7c-.9 0-1.52-.63-1.38-1.53.14-.92.96-1.58 1.86-1.58.88 0 1.5.66 1.36 1.58-.14.9-.96 1.53-1.84 1.53zm0 0M42.36 2.4c-.92 0-1.48.41-1.63 1.38l-.24 1.59h2.07l-.01 2.21h-2.4l-1.34 8.67h-2.68l1.34-8.67h-1.58l.34-2.21h1.58l.28-1.87c.37-2.4 2.04-3.3 4.27-3.3.48 0 .83.04 1.09.09l.02 2.2a7.38 7.38 0 0 0-1.11-.09M42.39 16.25l1.67-10.88h2.71l-1.68 10.88h-2.7zm3.33-12.7c-.9 0-1.53-.63-1.39-1.53.15-.92.97-1.58 1.87-1.58.87 0 1.49.66 1.35 1.58-.14.9-.95 1.53-1.83 1.53zm0 0M57.24 11.34h-6.98c-.19 2.12.79 3.04 2.46 3.04 1.4 0 2.62-.52 3.95-1.35l-.02 2.11a8.314 8.314 0 0 1-4.55 1.33c-3.03 0-5.04-1.73-4.44-5.65.55-3.53 2.99-5.67 5.83-5.67 3.26 0 4.35 2.45 3.87 5.54-.03.22-.1.49-.12.65zm-4.11-4.32c-1.08 0-2.09.85-2.56 2.63h4.32c.08-1.69-.45-2.63-1.76-2.63zm0 0M65.24 16.25l.01-1.51c-.91.92-2.09 1.73-3.6 1.73-2.27 0-3.84-1.69-3.27-5.36.62-4.05 3.13-5.85 5.65-5.85 1.04 0 1.84.18 2.46.41L67.3.42l2.76-.43-2.5 16.26h-2.32zm.91-8.36c-.63-.31-1.12-.47-2.05-.47-1.42 0-2.63 1.15-3 3.54-.32 2.11.43 3.1 1.62 3.1.99 0 1.85-.58 2.7-1.48l.73-4.69zm0 0M75.84 16.35c-1.28 0-2.32-.2-3.29-.55l1.77-11.54 2.1-.33-.77 5c.61-.54 1.46-1.09 2.51-1.09 1.73 0 2.9 1.3 2.47 4.06-.46 3.03-2.34 4.45-4.79 4.45zm1.51-6.7c-.68 0-1.37.46-1.98 1.07l-.57 3.74c.4.15.68.22 1.26.22 1.3 0 2.2-.79 2.49-2.66.25-1.59-.28-2.37-1.2-2.37zm0 0M85.46 16.69c-1.05 2.03-2.08 2.66-3.67 2.66-.36 0-.56-.03-.74-.08l-.01-1.69c.26.07.54.12.94.12.59 0 1.11-.28 1.46-.87l.27-.55-1.73-8.12 2.17-.27 1.01 5.87 2.72-5.75h2.03l-4.45 8.68"/></svg>