<svg height="22" width="19" xmlns="http://www.w3.org/2000/svg" viewBox="0 0 19 22"><path fill="#f5a623" fill-rule="evenodd" d="M7.24 19.26c0 1.1.89 1.99 1.99 1.99s1.99-.89 1.99-1.99H7.24zm8.87-4.19V9.25c0-3.25-2.25-5.97-5.29-6.69v-.72c0-.88-.71-1.59-1.59-1.59-.88 0-1.59.71-1.59 1.59v.72a6.873 6.873 0 0 0-5.29 6.69v5.82L.23 17.19v1.06h18v-1.06l-2.12-2.12zm-6.88 0c-.55 0-1-.44-1-1 0-.55.45-1 1-1 .56 0 1 .45 1 1 0 .56-.44 1-1 1zm-.01-8.83c.6-.03 1.11.45 1.05 1l-.46 4.55c-.02.25-.25.45-.53.45s-.52-.2-.54-.45l-.46-4.52c-.05-.53.37-1.01.94-1.03zm0 0"/></svg>