<svg height="22" width="64" xmlns="http://www.w3.org/2000/svg" viewBox="0 0 64 22"><path fill="#1c548e" fill-rule="evenodd" d="M18.19 1.33l-5.03 13.56-.54-2.75C11.37 8.76 8.66 5.21 5.5 3.78l4.6 17.41h5.44l8.09-19.86h-5.44M22.5 21.21l3.21-19.9h5.14l-3.22 19.9H22.5M46.27 1.8c-1.01-.4-2.61-.83-4.6-.83-5.08 0-8.65 2.7-8.69 6.56-.03 2.86 2.56 4.46 4.5 5.41 2.01.97 2.68 1.6 2.67 2.47-.02 1.33-1.6 1.94-3.08 1.94-2.05 0-3.15-.3-4.83-1.04l-.67-.32-.72 4.45c1.21.56 3.43 1.04 5.73 1.06 5.4 0 8.9-2.67 8.95-6.79.02-2.27-1.35-3.99-4.32-5.41-1.79-.92-2.9-1.53-2.88-2.47 0-.82.93-1.71 2.94-1.71 1.68-.03 2.89.36 3.85.77l.45.23.7-4.32M59.45 1.33h-3.97c-1.23 0-2.15.35-2.7 1.65l-7.62 18.24h5.39s.89-2.46 1.09-3c.58 0 5.82.02 6.57.02.16.69.63 2.98.63 2.98h4.77L59.45 1.33zm-6.34 12.82c.43-1.14 2.05-5.56 2.05-5.56-.03.06.42-1.15.68-1.89l.35 1.71s.98 4.75 1.19 5.74h-4.27zm0 0"/><path fill="#e79f3f" fill-rule="evenodd" d="M8.5 1.32H.21l-.05.34c6.44 1.65 10.69 5.7 12.46 10.48L10.82 3c-.31-1.26-1.21-1.63-2.32-1.68"/></svg>