<svg height="49" width="52" xmlns="http://www.w3.org/2000/svg" viewBox="0 0 52 49"><path fill-rule="evenodd" d="M47.28 15.33c.16-.07.32-.17.45-.3l1.51-1.51c.59-.58.59-1.54 0-2.12l-1.51-1.51c-.58-.59-1.54-.59-2.13 0l-1.5 1.51c-.07.07-.11.16-.17.24a20.98 20.98 0 0 0-12.32-5.13V3.43h3.02c.83 0 1.5-.68 1.5-1.51s-.67-1.5-1.5-1.5h-9.04c-.83 0-1.5.67-1.5 1.5s.67 1.51 1.5 1.51h3.01v3.09c-5.94.42-11.39 3.27-15.1 8.02-.52.66-.4 1.6.26 2.11.65.52 1.6.4 2.11-.25a17.95 17.95 0 0 1 14.24-6.95c9.96 0 18.06 8.1 18.06 18.07 0 9.96-8.1 18.06-18.06 18.06-5.6 0-10.79-2.53-14.24-6.95-.51-.65-1.46-.77-2.11-.25a1.5 1.5 0 0 0-.26 2.11c4.03 5.15 10.08 8.1 16.61 8.1 11.62 0 21.08-9.45 21.08-21.07 0-4.55-1.46-8.74-3.91-12.19zm-17.17 15.2a3.015 3.015 0 0 0 0-6.03c-.27 0-.52.05-.77.12l-7.2-7.2c-.59-.59-1.54-.59-2.13 0-.59.59-.59 1.54 0 2.13l7.2 7.19c-.07.25-.11.51-.11.78 0 1.66 1.35 3.01 3.01 3.01zm-13.55-1.51c.83 0 1.51-.67 1.51-1.5 0-.84-.68-1.51-1.51-1.51H4.52c-.84 0-1.51.67-1.51 1.51 0 .83.67 1.5 1.51 1.5h12.04zm-4.52 3.01H6.02c-.83 0-1.5.68-1.5 1.51s.67 1.5 1.5 1.5h6.02c.83 0 1.51-.67 1.51-1.5s-.68-1.51-1.51-1.51zm0-10.54c0-.83-.67-1.5-1.5-1.5H1.51A1.5 1.5 0 0 0 0 21.49C0 22.32.67 23 1.51 23h9.03c.83 0 1.5-.68 1.5-1.51zm0 0"/></svg>