<svg height="49" width="39" xmlns="http://www.w3.org/2000/svg" viewBox="0 0 39 49"><path fill-rule="evenodd" d="M9.97 16.37c.61-.42.77-1.24.36-1.85a7.374 7.374 0 0 1-1.24-4.1c0-4.05 3.27-7.34 7.28-7.34s7.28 3.29 7.28 7.34c0 1.47-.43 2.88-1.25 4.09-.41.61-.25 1.44.36 1.86.22.15.48.22.74.22.42 0 .84-.2 1.1-.58a10.01 10.01 0 0 0 1.69-5.59c0-5.52-4.45-10-9.92-10s-9.93 4.48-9.93 10c0 2 .59 3.93 1.7 5.59.41.61 1.23.77 1.83.36m25.54 14.37c-.14.84-2.12 8.52-3.53 13.93-1.36.36-4.62 1.08-8.63 1.08-4.4 0-8.21-.88-9.38-1.18-.75-.92-3.02-3.8-5.32-7.64a119.41 119.41 0 0 0-5.41-8.12c1.52-.66 3.3-.47 4.66.6l4.37 4.57.01.01c.12.12.27.23.43.3.16.06.34.1.51.1.17 0 .34-.04.5-.1.09-.04.17-.1.25-.16.05-.04.12-.06.17-.11 0-.01 0-.01.01-.01.1-.11.18-.23.24-.36.01-.03.04-.05.05-.07.01-.04.01-.09.02-.13.04-.12.08-.25.08-.38V11.08c0-.8.2-2.66 1.99-2.66s1.98 1.86 1.98 2.66l-.02 14.61c0 .06.02.11.03.17 0 .01.01.02.01.03.02.14.05.27.11.39.05.11.12.21.2.31.02.02.03.04.04.05.04.04.06.09.11.13.56.47 1.39.4 1.86-.16.01-.01.81-.91 1.89-.79 1.36.17 1.77 1.35 1.81 1.46.13.47.5.83.97.94.48.1.97-.05 1.29-.42.01-.01.83-.9 2.09-.57 1.3.35 1.55 1.29 1.57 1.37.09.49.44.89.92 1.04.48.14.99.01 1.33-.35.01-.01.95-.93 1.83-.54 1.01.44 1.08 1.33.96 1.99m.1-4.43c-1.23-.55-2.41-.34-3.34.1-.55-.72-1.41-1.42-2.7-1.76-1.29-.34-2.44-.1-3.31.33a4.664 4.664 0 0 0-3.21-1.8c-.69-.09-1.34.01-1.91.2l.02-12.3c0-3.19-1.86-5.33-4.63-5.33-2.77 0-4.63 2.14-4.63 5.33v18.67l-2.16-2.26c-.04-.04-.08-.08-.12-.11-2.68-2.17-6.41-2.18-9.1-.03H.51v.01c-.01.01-.02.01-.03.02-.07.06-.11.13-.17.2-.05.07-.11.12-.15.19-.04.08-.06.16-.08.25-.03.08-.07.15-.08.23-.01.09.01.18.02.26 0 .09 0 .17.02.25.02.09.07.16.11.25.04.07.06.15.11.21.03.05 3.3 4.41 6.12 9.1 2.92 4.84 5.72 8.16 5.84 8.3.02.03.05.03.08.06.08.08.16.14.26.2.07.04.13.08.21.11.03.01.05.03.08.04.2.06 4.83 1.39 10.5 1.39 5.7 0 9.94-1.34 10.12-1.4 0 0 .01 0 .01-.01.15-.05.29-.13.42-.23.04-.03.07-.07.1-.11.08-.08.15-.16.2-.25.03-.06.05-.11.08-.17.02-.06.05-.1.07-.16.36-1.39 3.55-13.62 3.77-14.88.38-2.17-.58-4.05-2.51-4.9"/></svg>