<svg height="50" width="41" xmlns="http://www.w3.org/2000/svg" viewBox="0 0 41 50"><path fill-rule="evenodd" d="M37.36 34.89H14.37l.01-31.7H27.3v8.7c0 .8.67 1.39 1.46 1.39h8.6v21.61zm-2.03-24.44l-5.13-.05-.02-5.1 5.15 5.15zm4.94 1.44c0-.48-.24-.91-.61-1.17L29.76.81c-.35-.35-.85-.47-1.32-.37-.07-.01-.14-.05-.22-.05H14.14c-1.46 0-2.64 1.19-2.64 2.65v32.08c0 1.46 1.18 2.65 2.64 2.65h23.45c1.46 0 2.64-1.19 2.64-2.65V12.41c0-.06-.02-.12-.03-.18.03-.11.07-.22.07-.34zM27.3 46.39H2.87V13.33c0-.79-.64-1.44-1.43-1.44-.8 0-1.44.65-1.44 1.44v33.29c0 1.46 1.18 2.65 2.64 2.65H27.3a1.44 1.44 0 0 0 0-2.88zm5.75-5.75H8.62V7.58c0-.79-.64-1.44-1.44-1.44-.79 0-1.43.65-1.43 1.44v33.29c0 1.46 1.18 2.65 2.64 2.65h24.66c.79 0 1.44-.65 1.44-1.44 0-.79-.65-1.44-1.44-1.44zm0 0"/></svg>