<svg height="21" width="21" xmlns="http://www.w3.org/2000/svg" viewBox="0 0 21 21"><path fill="#ff6b6b" fill-rule="evenodd" d="M10.07 20.4c5.53 0 10-4.48 10-10 0-5.53-4.47-10-10-10-5.52 0-10 4.47-10 10 0 5.52 4.48 10 10 10zm1.34-10.07l1.9-1.91c.35-.35.35-.91 0-1.26a.887.887 0 0 0-1.26 0l-1.91 1.9c-.03.04-.1.04-.14 0l-1.9-1.9a.887.887 0 0 0-1.26 0c-.35.35-.35.91 0 1.26l1.9 1.91c.04.03.04.1 0 .14l-1.9 1.9c-.35.35-.35.92 0 1.26.35.35.91.35 1.26 0l1.9-1.9c.04-.04.11-.04.14 0l1.91 1.9c.35.35.91.35 1.26 0 .35-.34.35-.91 0-1.26l-1.9-1.9c-.04-.04-.04-.11 0-.14zm0 0"/></svg>