<svg height="24" width="144" xmlns="http://www.w3.org/2000/svg" viewBox="0 0 144 24"><path fill="#fff" fill-rule="evenodd" d="M7.09 22.94v-7.11h5.21c5.28 0 8.12-3.52 8.12-7.71 0-4.23-2.84-7.75-8.12-7.75H.25v22.57h6.84zm4.33-13.06H7.09V6.33h4.33c1.15 0 2.06.57 2.06 1.79 0 1.18-.91 1.76-2.06 1.76zm38.01 13.06L41.11.37h-8.59l-8.33 22.57h7.75l.81-2.64h8.12l.81 2.64h7.75zm-10.38-8.59h-4.47l2.23-7.28 2.24 7.28zm28.44 8.59v-8.97L75.88.37H68.2l-4.13 7.61-4.2-7.61h-7.68l8.46 13.6v8.97h6.84zm42.75 0V.37h-9.44L96.84 11.2 92.88.37h-9.44v22.57h6.83V9.37l5.05 13.57h3.04l5.04-13.57v13.57h6.84zm21.13.41c6.97 0 12.35-4.74 12.35-11.68 0-6.93-5.38-11.67-12.35-11.67s-12.35 4.74-12.35 11.67c0 6.94 5.38 11.68 12.35 11.68zm0-6.03c-3.28 0-5.41-2.5-5.41-5.65 0-3.14 2.13-5.65 5.41-5.65 3.28 0 5.41 2.51 5.41 5.65 0 3.15-2.13 5.65-5.41 5.65zm0 0"/></svg>