<svg height="20" width="119" xmlns="http://www.w3.org/2000/svg" viewBox="0 0 119 20"><path fill-opacity=".43" fill="#fff" fill-rule="evenodd" d="M5.66 19.65v-5.88h4.32c4.37 0 6.73-2.92 6.73-6.4 0-3.5-2.36-6.42-6.73-6.42H0v18.7h5.66zM9.25 8.83H5.66V5.89h3.59c.96 0 1.71.47 1.71 1.48 0 .99-.75 1.46-1.71 1.46zm31.5 10.82L33.85.95h-7.12l-6.89 18.7h6.42l.67-2.18h6.73l.67 2.18h6.42zm-8.61-7.12h-3.7l1.85-6.03 1.85 6.03zm23.57 7.12v-7.43L62.66.95H56.3l-3.42 6.31L49.4.95h-6.36l7.01 11.27v7.43h5.66zm35.42 0V.95h-7.82l-3.28 8.98L76.75.95h-7.82v18.7h5.66V8.41l4.18 11.24h2.52l4.18-11.24v11.24h5.66zm17.51.34c5.78 0 10.24-3.92 10.24-9.67S114.42.65 108.64.65c-5.77 0-10.23 3.92-10.23 9.67s4.46 9.67 10.23 9.67zm0-4.99c-2.72 0-4.48-2.07-4.48-4.68s1.76-4.68 4.48-4.68c2.72 0 4.49 2.07 4.49 4.68S111.36 15 108.64 15zm0 0"/></svg>