<svg height="29" width="77" xmlns="http://www.w3.org/2000/svg" viewBox="0 0 77 29"><path fill="#d1dcd9" fill-rule="evenodd" d="M1.74 12.77c.47-.02.94-.01 1.41-.01.63 0 .64-.02.72-.66.09-.68.2-1.35.31-2.03.25-1.59.49-3.18.76-4.76.05-.28.01-.59.22-.85.01.9.11 1.78.13 2.67.02 1.7.06 3.4.08 5.1.01.39.14.57.55.54.31-.03.62-.02.92 0 .26.01.38-.11.45-.33.68-2.02 1.37-4.05 2.05-6.07.22-.66.45-1.32.68-1.98.14.5-.02.96-.09 1.43-.32 2.18-.67 4.36-1.01 6.54-.05.28.03.41.34.41.51-.02 1.03-.01 1.54-.01.7 0 .71-.03.81-.72.34-2.23.68-4.45 1.03-6.67.24-1.53.48-3.06.74-4.59.05-.35-.02-.51-.43-.49-1.02.02-2.05.01-3.08 0-.3-.01-.45.1-.54.38-.58 1.85-1.16 3.68-1.75 5.52-.14.42-.29.84-.45 1.31-.13-.2-.08-.35-.08-.49-.04-2.09.05-4.19-.08-6.28-.02-.37-.16-.45-.48-.44C5.58.3 4.67.31 3.76.28c-.38-.01-.52.14-.57.49-.25 1.66-.52 3.32-.78 4.98-.35 2.19-.7 4.38-1.06 6.58-.05.33.06.45.39.44zm0 0M76.41.29c-.58 0-1.15.02-1.72 0-.37-.02-.51.13-.56.5-.1.85-.23 1.7-.36 2.55-.03.25-.15.26-.31.1-.09-.08-.17-.16-.25-.24-.84-.8-1.82-.95-2.88-.57-1.05.38-1.71 1.2-2.23 2.14-.53.97-.82 2.01-.9 3.1-.1 1.17-.03 2.34.56 3.42.3.56.72 1.04 1.31 1.31 1.11.49 2.14.33 3.08-.43.07-.07.13-.19.25-.13.08.03.07.12.06.19-.1.5.18.57.58.53.18-.01.38 0 .57 0 .25 0 .5-.01.75 0 .35.03.53-.07.58-.46.12-.99.29-1.97.44-2.95.44-2.9.88-5.8 1.34-8.7.05-.3-.06-.36-.31-.36zm-3.69 8.68c-.18.46-.48.82-.86 1.09-.84.58-1.81.07-1.94-.99-.03-.28-.01-.56-.01-.84-.06-.9.13-1.75.63-2.51.59-.88 1.6-.99 2.18-.27.25.31.31.69.34 1.07.07.84-.04 1.66-.34 2.45zm0 0M69.2 15.67c-.57.01-1.14.05-1.71-.02-.23-.03-.29.14-.31.34l-.36 2.64c-.02.11.03.26-.11.3-.14.04-.21-.09-.29-.17-.31-.31-.6-.63-1.04-.78-1.14-.4-2.39.03-3.2 1.11-1.08 1.42-1.5 3.05-1.53 4.8-.01.5 0 1 .11 1.49.15.72.41 1.41.88 1.98.88 1.05 2.39 1.14 3.6.24.09-.07.15-.23.28-.16.13.07.07.22.06.32-.02.25.08.34.33.34.53-.01 1.05-.01 1.58 0 .25 0 .35-.11.38-.33.2-1.42.41-2.83.62-4.25.22-1.59.44-3.17.67-4.76.12-.9.25-1.79.39-2.69.04-.27-.04-.4-.35-.4zm-3.37 8.67c-.31.84-.88 1.31-1.53 1.3-.58 0-.97-.4-1.09-1.11-.15-.98-.04-1.92.28-2.85.1-.29.23-.56.45-.79.36-.38.76-.66 1.32-.48.55.17.76.63.83 1.13.15.95.08 1.89-.26 2.8zm0 0M61.08 12.14c.2-1.38.43-2.77.61-4.16.12-.97.33-1.93.29-2.92-.05-1.28-.9-2.31-2.12-2.57-1.37-.29-2.7-.05-4.01.33-.21.06-.28.17-.31.37-.07.52-.17 1.04-.24 1.56-.08.49-.06.51.43.37.98-.3 1.96-.43 2.98-.27.64.11.94.56.76 1.17-.06.2-.15.26-.35.23-.55-.1-1.1-.06-1.65.01-2.36.31-3.66 1.82-3.48 4.19.15 1.97 1.47 2.76 3.34 2.33.58-.13 1.05-.48 1.47-.88.14.13.1.26.09.36-.05.39.1.54.49.51.34-.03.68-.01 1.01-.01.61 0 .6 0 .69-.62zm-2.05-3.17c-.1.39-.24.77-.5 1.11-.35.45-.93.69-1.42.57-.43-.1-.58-.41-.65-.79-.09-.51.21-1.1.67-1.38.3-.18.76-.28 1.31-.28.68 0 .76.1.59.77zm0 0M17.59 6.19c-1.08-.02-2.14.06-3.1.62-1.57.92-1.92 2.47-1.66 4.15.07.44.29.82.56 1.18.77 1.01 2.54.89 3.43.33.26-.16.5-.34.81-.57 0 .18.01.29 0 .38-.06.37.07.51.45.49.44-.03.88-.01 1.32-.01.25 0 .38-.08.42-.37.11-.95.28-1.88.39-2.83.18-1.5.55-2.99.5-4.52-.05-1.34-.86-2.3-2.16-2.56-1.33-.26-2.61-.02-3.89.33-.27.07-.33.26-.37.48-.1.54-.17 1.09-.26 1.64-.04.22.02.3.26.23.6-.18 1.22-.31 1.85-.36.58-.04 1.17-.07 1.72.18.36.16.5.62.36 1.07-.12.39-.41.15-.63.14zm.28 2.15c-.08.76-.28 1.53-.93 2.02-.57.41-1.29.37-1.57-.09-.33-.54-.11-1.52.44-1.85.43-.26.89-.44 1.43-.44h.4c.16 0 .24.2.23.36zm0 0M32.6 9.59c.2 1.37.87 2.44 2.19 2.96 1.44.57 2.93.41 4.39.03.2-.05.28-.22.31-.39.11-.59.22-1.18.3-1.77.06-.46 0-.48-.43-.32-1.1.42-2.21.68-3.37.24-.61-.24-.96-.8-.96-1.44 0-.27.1-.35.36-.35.18 0 .36.01.54.01h1.62c.52 0 1.03-.01 1.55-.01.17 0 .34.01.51.01.3.01.46-.06.52-.37.22-1.01.33-2.03.16-3.05-.13-.85-.5-1.62-1.24-2.15-1.65-1.18-4.02-.73-5.24 1-1.19 1.7-1.51 3.59-1.21 5.6zm4.36-4.89c.68.06 1.23.87 1.04 1.52-.06.19-.19.23-.37.23-.33-.01-.67 0-1 0h-1.05c-.17 0-.28-.04-.28-.24.02-.76.92-1.58 1.66-1.51zm0 0M57.84 18.26c-1.96-.83-4.14 0-5.13 1.88-.61 1.16-.88 2.38-.86 3.68.01.47 0 .93.09 1.4.2 1.08.59 2.06 1.53 2.71 1.67 1.17 4.59.64 5.68-1.56.43-.87.65-1.77.74-2.73.11-1.14.1-2.25-.3-3.33-.33-.9-.85-1.66-1.75-2.05zm-.43 4.14c0 1.21-.12 2.19-.71 3.05-.55.79-1.6.74-2.03-.1-.65-1.24-.25-3.61.77-4.58.57-.55 1.34-.41 1.71.29.25.49.28 1.01.26 1.34zm0 0M31.53 18.07c-.53.01-1.06.03-1.58-.01-.4-.03-.56.13-.61.5-.2 1.48-.41 2.97-.65 4.46-.1.68-.31 1.34-.74 1.9-.32.41-.89.6-1.33.45-.37-.13-.57-.5-.57-1.09-.01-.91.22-1.79.32-2.69.13-1.06.32-2.11.47-3.16.04-.23-.06-.36-.31-.36-.4.01-.79 0-1.19 0-1.35.01-.99-.17-1.2 1.13-.24 1.45-.41 2.92-.6 4.38-.14 1.08-.15 2.15.22 3.2.28.77.74 1.4 1.59 1.55 1.04.18 1.88-.27 2.54-1.08.11-.14.18-.32.43-.37-.03.34-.03.66-.08.97-.04.21.03.26.21.26h1.81c.16 0 .27-.04.29-.24.05-.5.1-1.01.17-1.52.25-1.8.51-3.61.77-5.41.12-.84.25-1.67.38-2.51.04-.27-.07-.37-.34-.36zm0 0M8.45 15.76c-1.26-.44-2.54-.51-3.82-.17-.98.26-1.7.88-2.15 1.81-.25.53-.37 1.09-.42 1.65-.14 1.48.24 2.76 1.68 3.58.48.27.99.51 1.38.92.66.72.43 1.88-.49 2.2-1.01.35-1.97.16-2.87-.35-.29-.16-.38-.11-.44.2-.12.63-.25 1.26-.4 1.88-.06.26 0 .38.24.47.82.29 1.63.57 2.55.5.18 0 .38.02.59-.01 1.53-.16 2.74-.81 3.36-2.3.31-.75.38-1.55.35-2.37-.06-1.26-.55-2.28-1.68-2.94-.43-.25-.86-.5-1.27-.78-.44-.3-.56-.75-.47-1.24.09-.47.42-.73.88-.79.78-.1 1.55-.13 2.28.26.45.24.47.22.6-.29.13-.55.23-1.12.38-1.66.09-.31.02-.46-.28-.57zm0 0M46.69 9.88c.49 1.83 2.04 3.14 4.22 3.07.61.03 1.22-.13 1.83-.28.15-.04.31-.09.34-.29.12-.8.25-1.59.36-2.39.03-.21-.02-.3-.27-.17-.4.2-.84.35-1.28.45-1.18.27-2.28-.31-2.64-1.46-.54-1.69-.26-3.29.66-4.76.63-1.01 1.6-1.45 2.82-1.23.48.09.94.24 1.37.47.25.13.36.08.41-.22.09-.69.21-1.38.32-2.08.04-.19-.02-.31-.22-.4-.34-.16-.7-.23-1.05-.33-2.12-.63-4.25.01-5.54 1.8-1.73 2.37-2.08 5.03-1.33 7.82zm0 0M40.93 17.9c-1.62-.04-2.68.83-3.4 2.16-.88 1.62-1.09 3.38-.8 5.19.17 1.05.59 2.02 1.55 2.59 1.49.89 3.06.73 4.62.24.13-.05.21-.16.23-.3.09-.63.16-1.25.28-1.86.07-.41-.06-.43-.37-.27-.77.39-1.59.49-2.43.43-1-.06-1.62-.7-1.62-1.61 0-.3.11-.42.41-.42.08.01.16.01.24.01.57.01 1.13 0 1.7 0 .66 0 1.32-.01 1.98 0 .19 0 .34-.02.38-.25.26-1.35.44-2.69-.06-4.02a2.922 2.922 0 0 0-2.71-1.89zm.77 4c-.07.14-.2.17-.34.17h-1.93c-.15 0-.25-.06-.24-.25.03-.76.84-1.55 1.58-1.53.68.02 1.25 1 .93 1.61zm0 0M16.02 21.05c-.1-1.01-.41-1.94-1.27-2.56-1.51-1.08-3.63-.67-4.72.93-1.25 1.81-1.54 3.83-1.17 5.95.18 1.02.61 1.92 1.56 2.49 1.47.87 3 .68 4.54.23.15-.04.24-.15.26-.32.09-.6.19-1.21.27-1.82.02-.12.14-.27.01-.37-.14-.1-.28.03-.41.09-.92.41-1.86.57-2.86.32-.74-.18-1.17-.79-1.15-1.56.01-.26.1-.38.37-.37 1.32.03 2.64-.07 3.95.06.25.02.4-.07.44-.32.09-.68.23-1.36.19-2.08-.01-.21.01-.44-.01-.67zm-2.87 1.02h-.61c-.32 0-.64-.02-.96-.03-.26 0-.35-.13-.25-.38.14-.33.26-.68.49-.98.28-.35.84-.52 1.31-.39.38.11.67.57.69 1.04.03.72.03.74-.67.74zm0 0M75.04 18.27c-1.47-.8-3.34-.31-4.35 1.13-1.29 1.84-1.56 3.9-1.17 6.07.17.96.61 1.82 1.47 2.35 1.5.92 3.08.74 4.66.26.12-.04.2-.14.22-.26.1-.65.19-1.3.28-1.95.04-.32-.09-.37-.35-.23-.74.38-1.53.48-2.34.45-1.02-.05-1.54-.52-1.74-1.51-.09-.44.1-.52.46-.52h1.89c.48 0 .97-.01 1.45 0 .16 0 .32 0 .48.01.3.01.41-.1.47-.38.21-.91.29-1.83.19-2.75-.12-1.11-.57-2.1-1.62-2.67zm-.58 3.57c-.04.13-.14.18-.26.18h-2.03c-.12 0-.22-.03-.23-.19-.06-.69.77-1.57 1.48-1.57.75.01 1.31.84 1.04 1.58zm0 0M51.07 25.33c-.25.13-.51.23-.77.33-1.17.44-2.24-.01-2.76-1.15-.25-.56-.31-1.15-.27-1.74-.05-.9.14-1.74.44-2.55.48-1.28 1.5-2.04 2.71-1.98.56.03 1.08.24 1.57.51.23.12.36.1.39-.18.05-.45.13-.9.18-1.35.12-1.11.12-1.11-.99-1.46-2.04-.65-4.06.01-5.25 1.78-1.64 2.45-1.88 5.15-1.19 7.95.23.98.81 1.81 1.71 2.36 1.29.78 2.62.67 3.98.26.17-.05.22-.16.24-.32.11-.75.23-1.5.34-2.25.05-.33-.07-.35-.33-.21zm0 0M21.1 12.7c.67.12 1.34.2 2.01.17.54-.01 1.08.02 1.62-.13 1.54-.42 2.33-1.41 2.38-3.01.03-1.03-.2-1.95-1.06-2.62-.4-.32-.88-.52-1.33-.76-.35-.18-.67-.4-.55-.88.09-.38.4-.61.9-.61.58-.01 1.17-.06 1.75.07.23.06.37-.01.4-.29.06-.57.15-1.13.26-1.69.07-.32-.05-.44-.34-.45-.77-.04-1.54-.16-2.32-.11-1.54.11-2.93.72-3.26 2.6-.23 1.28.02 2.51 1.25 3.3.37.24.76.45 1.15.65.38.21.7.45.6.95-.11.49-.53.59-.93.69-.08.02-.17 0-.26.01-.73.06-1.43-.11-2.12-.3-.25-.07-.37-.06-.4.24-.06.51-.17 1.01-.24 1.51-.08.56-.07.56.49.66zm0 0M22.53 18.2A3.983 3.983 0 0 0 18 19.45c-1.01 1.28-1.43 2.73-1.36 4.34 0 .31-.03.62 0 .92.13 1.24.56 2.36 1.57 3.13 1.11.85 2.35.71 3.59.28.2-.07.28-.22.3-.44.05-.57.12-1.13.2-1.7.02-.15.14-.34.01-.45-.16-.15-.32.05-.47.11-1.29.56-2.45-.1-2.66-1.47-.07-.45-.03-.88.03-1.31.08-.54.19-1.1.56-1.54.74-.89 1.56-1.04 2.71-.46.32.16.44.09.5-.25.06-.37.15-.74.24-1.11.21-.94.22-.95-.69-1.3zm0 0M28.61 12.71c.91.44 1.83.22 2.73-.08.12-.04.15-.17.17-.29.09-.58.18-1.15.26-1.73.05-.35-.18-.29-.39-.25-.85.15-1.21-.23-1.06-1.09.18-1.04.3-2.1.5-3.15.22-1.16-.08-.99 1.07-.99.27 0 .4-.07.43-.36.04-.45.11-.9.19-1.34.14-.84.14-.85-.7-.84-.31 0-.53-.01-.39-.42.08-.23.11-.48.16-.72s-.03-.37-.29-.37c-.08 0-.16.01-.24.01h-.73c-.31 0-.62 0-.92-.01-.25 0-.39.11-.42.35-.06.36-.12.72-.17 1.08-.29 1.82-.57 3.64-.86 5.46-.15 1.02-.37 2.04-.31 3.09.03.72.31 1.33.97 1.65zm0 0M45.31 5.55c.27.02.34-.11.4-.35.17-.69.34-1.39.63-2.05.09-.18.33-.43.17-.59-.2-.18-.53-.1-.8-.02-.16.05-.31.16-.46.25-.39.22-.6.63-.98 1.05.05-.37.05-.63.11-.88.09-.33-.06-.38-.33-.38-.53.01-1.06.02-1.58 0-.31-.02-.42.12-.46.39l-.45 2.85c-.33 2.17-.65 4.33-1 6.49-.06.35.01.46.35.45.6-.01 1.2-.01 1.8.01.29.01.42-.1.46-.39.15-1.05.32-2.11.5-3.16.18-1.06.33-2.14.82-3.12.17-.34.42-.57.82-.55zm0 0M62.45 12.77c.57-.02 1.14-.03 1.71 0 .36.01.5-.13.55-.47.14-.95.28-1.9.44-2.85.17-1.01.33-2.02.68-2.99.18-.51.44-.93 1.08-.91.2.01.28-.14.31-.31.17-.83.41-1.64.78-2.41.13-.26.01-.33-.24-.35-.47-.02-.86.15-1.19.48-.24.24-.47.5-.75.8-.03-.32.04-.55.09-.79.06-.25-.03-.39-.31-.39-.45.01-.91.01-1.36.01-.69 0-.67 0-.77.7-.23 1.63-.48 3.26-.73 4.89-.21 1.39-.44 2.77-.66 4.15-.05.29.04.44.37.44zm0 0M37.16 18.07c-.17-.18-.45-.11-.67-.05-.16.05-.31.16-.46.24-.43.22-.58.68-.98.98.05-.25.1-.51.14-.76.05-.27-.04-.42-.34-.41-.49.01-.97.01-1.45 0-.26-.01-.37.09-.4.34-.07.51-.17 1.01-.24 1.52-.23 1.58-.45 3.17-.67 4.76-.15 1.07-.32 2.14-.47 3.2-.03.21.05.31.26.3h1.85c.21.01.31-.09.33-.31.11-.87.23-1.73.36-2.6.16-1.07.3-2.14.62-3.17.16-.52.36-1.04.99-1.12.3-.03.37-.17.42-.44.13-.67.32-1.33.57-1.97.07-.17.3-.34.14-.51zm0 0"/></svg>