<svg height="20" width="20" xmlns="http://www.w3.org/2000/svg" viewBox="0 0 20 20"><path fill="#364448" fill-rule="evenodd" d="M7.54 9H1.46C.65 9 0 8.35 0 7.54V1.46C0 .65.65 0 1.46 0h6.08C8.35 0 9 .65 9 1.46v6.08C9 8.35 8.35 9 7.54 9zm11 0h-6.08C11.65 9 11 8.35 11 7.54V1.46C11 .65 11.65 0 12.46 0h6.08C19.35 0 20 .65 20 1.46v6.08C20 8.35 19.35 9 18.54 9zm-11 11H1.46C.65 20 0 19.35 0 18.54v-6.08C0 11.65.65 11 1.46 11h6.08c.81 0 1.46.65 1.46 1.46v6.08C9 19.35 8.35 20 7.54 20zm11 0h-6.08c-.81 0-1.46-.65-1.46-1.46v-6.08c0-.81.65-1.46 1.46-1.46h6.08c.81 0 1.46.65 1.46 1.46v6.08c0 .81-.65 1.46-1.46 1.46zm0 0"/></svg>