<svg height="63" width="63" xmlns="http://www.w3.org/2000/svg" viewBox="0 0 63 63"><path fill="#ff6b6b" fill-rule="evenodd" d="M31.05 62.93c17.15 0 31.05-13.91 31.05-31.06S48.2.82 31.05.82-.01 14.72-.01 31.87 13.9 62.93 31.05 62.93zm4.15-31.28l5.9-5.91a2.758 2.758 0 0 0 0-3.92 2.758 2.758 0 0 0-3.92 0l-5.91 5.91c-.12.12-.32.12-.44 0l-5.91-5.91a2.776 2.776 0 1 0-3.93 3.92l5.91 5.91c.12.12.12.32 0 .44L20.99 38a2.788 2.788 0 0 0 0 3.93 2.788 2.788 0 0 0 3.93 0l5.91-5.91c.12-.12.32-.12.44 0l5.91 5.91A2.776 2.776 0 0 0 41.1 38l-5.9-5.91a.314.314 0 0 1 0-.44zm0 0"/></svg>