<svg height="31" width="99" xmlns="http://www.w3.org/2000/svg" viewBox="0 0 99 31"><path fill="#d1dcd9" fill-rule="evenodd" d="M48.51 14.39c.27.16.65.3 1.05.3.61 0 .96-.32.96-.79 0-.42-.24-.67-.86-.9-.75-.27-1.21-.67-1.21-1.31 0-.71.59-1.24 1.48-1.24.46 0 .81.11 1.01.22l-.17.48a1.76 1.76 0 0 0-.86-.21c-.62 0-.86.37-.86.68 0 .43.28.64.91.89.77.31 1.16.67 1.16 1.35 0 .7-.51 1.32-1.6 1.32-.44 0-.92-.14-1.17-.3l.16-.49M54.05 13.13c0-.37-.16-.97-.82-.97-.62 0-.88.56-.92.97h1.74zm-1.75.43c.01.81.52 1.14 1.12 1.14.43 0 .69-.07.91-.16l.11.42c-.21.1-.58.22-1.1.22-1.01 0-1.62-.68-1.62-1.66 0-1 .59-1.79 1.55-1.79 1.08 0 1.36.95 1.36 1.55 0 .13-.01.22-.02.29l-2.31-.01zm0 0M57.71 14.99c-.16.07-.5.19-.94.19-1 0-1.64-.67-1.64-1.69 0-1.01.69-1.75 1.77-1.75.35 0 .66.09.82.18l-.13.45c-.14-.07-.37-.15-.69-.15-.76 0-1.17.56-1.17 1.25 0 .76.49 1.23 1.15 1.23.33 0 .56-.08.73-.16l.1.45M61.17 14.21c0 .34 0 .64.02.9h-.53l-.03-.54h-.01c-.15.26-.51.61-1.09.61-.52 0-1.14-.29-1.14-1.44v-1.93h.6v1.82c0 .63.2 1.05.73 1.05.41 0 .69-.27.8-.55.03-.08.05-.19.05-.3v-2.02h.6v2.4M62.17 12.84c0-.39-.01-.72-.03-1.03h.52l.03.65h.02c.15-.44.52-.72.92-.72.06 0 .11.01.16.02v.56c-.06-.01-.13-.02-.21-.02-.42 0-.72.32-.8.77a2.3 2.3 0 0 0-.02.28v1.76h-.6l.01-2.27M65.01 15.11h-.6v-3.3h.6v3.3zm-.32-3.9c-.22 0-.37-.18-.37-.39 0-.21.16-.38.39-.38s.38.17.38.38-.15.39-.39.39h-.01zm0 0M66.72 11.03v.79h.86v.45h-.86v1.78c0 .4.12.64.45.64.16 0 .26-.02.35-.05l.02.46c-.11.04-.29.08-.53.08-.27 0-.5-.09-.64-.25-.16-.18-.23-.48-.23-.87v-1.79h-.51v-.45h.51v-.61l.58-.18M68.53 11.81l.72 1.95c.08.22.16.48.21.67h.02c.06-.19.13-.45.21-.68l.65-1.94h.63l-.9 2.35c-.42 1.13-.72 1.71-1.12 2.07-.3.25-.59.35-.74.38l-.15-.5c.15-.04.35-.14.53-.3.16-.13.36-.36.5-.66.03-.07.05-.11.05-.15 0-.03-.02-.08-.05-.15l-1.21-3.04h.65M48.51 21.19c.27.17.65.3 1.05.3.61 0 .96-.32.96-.79 0-.42-.24-.67-.86-.9-.75-.27-1.21-.67-1.21-1.31 0-.71.59-1.24 1.48-1.24.46 0 .81.11 1.01.22l-.17.49c-.14-.09-.44-.22-.86-.22-.62 0-.86.37-.86.68 0 .43.28.64.91.89.77.31 1.16.67 1.16 1.35 0 .7-.51 1.32-1.6 1.32-.44 0-.92-.13-1.17-.3l.16-.49M52.61 17.83v.79h.86v.45h-.86v1.78c0 .4.12.64.45.64.17 0 .26-.02.35-.05l.03.46c-.12.04-.3.08-.54.08-.27 0-.5-.09-.64-.25-.16-.18-.23-.48-.23-.86v-1.8h-.51v-.45h.51v-.61l.58-.18M55.88 20.23c-.66-.02-1.4.1-1.4.74 0 .39.26.57.56.57.43 0 .72-.27.81-.55.02-.06.03-.13.03-.19v-.57zm.58.89c0 .29.02.56.05.79h-.54l-.05-.41h-.02c-.18.25-.54.48-1.01.48-.67 0-1.01-.47-1.01-.94 0-.8.71-1.23 1.98-1.23v-.07c0-.27-.07-.76-.75-.76-.31 0-.63.09-.86.25l-.14-.4c.28-.17.68-.29 1.09-.29 1.02 0 1.26.69 1.26 1.35v1.23zm0 0M57.42 19.51c0-.35 0-.62-.03-.89h.53l.04.53h.01c.17-.3.55-.61 1.09-.61.46 0 1.16.27 1.16 1.4v1.97h-.59v-1.9c0-.53-.2-.98-.77-.98-.38 0-.69.28-.8.61-.03.08-.04.19-.04.28v1.99h-.6v-2.4M63.44 19.95c0-.08-.01-.17-.03-.25a.874.874 0 0 0-.86-.69c-.62 0-.99.54-.99 1.27 0 .67.34 1.22.98 1.22.4 0 .76-.27.87-.71.02-.09.03-.17.03-.26v-.58zm.6-2.87v3.98c0 .29 0 .62.02.85h-.53l-.03-.57h-.01c-.19.36-.58.64-1.12.64-.79 0-1.41-.67-1.41-1.67-.01-1.1.68-1.77 1.47-1.77.51 0 .85.24 1 .5h.01v-1.96h.6zm0 0M66.77 20.23c-.66-.02-1.4.1-1.4.74 0 .39.26.57.56.57.43 0 .71-.27.81-.55.02-.06.03-.13.03-.19v-.57zm.58.89c0 .29.01.56.05.79h-.54l-.05-.41h-.02c-.18.25-.54.48-1.01.48-.67 0-1.01-.47-1.01-.94 0-.8.71-1.23 1.98-1.23v-.07c0-.27-.07-.76-.75-.76-.31 0-.63.09-.86.25l-.14-.4c.28-.17.68-.29 1.09-.29 1.02 0 1.26.69 1.26 1.35v1.23zm0 0M68.32 19.64c0-.39-.01-.72-.03-1.03h.52l.03.65h.02c.15-.44.52-.72.92-.72.06 0 .11.01.16.02v.56c-.07-.01-.12-.01-.21-.01-.42 0-.72.32-.8.76a2.3 2.3 0 0 0-.02.28v1.76h-.6l.01-2.27M72.74 19.95c0-.08-.01-.17-.03-.25a.874.874 0 0 0-.86-.69c-.62 0-.99.54-.99 1.27 0 .67.33 1.22.97 1.22.41 0 .77-.27.88-.71.02-.09.03-.17.03-.26v-.58zm.6-2.87v3.98c0 .29 0 .62.02.85h-.53l-.03-.57h-.01c-.19.36-.58.64-1.12.64-.8 0-1.41-.67-1.41-1.67-.01-1.1.68-1.77 1.47-1.77.51 0 .85.24 1 .5h.01v-1.96h.6zm0 0M74.25 21.3c.18.11.5.23.79.23.43 0 .63-.21.63-.49s-.16-.44-.6-.6c-.6-.22-.88-.54-.88-.93 0-.53.44-.97 1.14-.97.33 0 .63.09.8.21l-.14.42a1.41 1.41 0 0 0-.67-.19c-.36 0-.55.21-.55.45 0 .28.19.4.62.57.57.21.86.49.86.99 0 .58-.45.99-1.22.99-.36 0-.69-.09-.93-.23l.15-.45M81.68 21.77c-.21.1-.65.21-1.21.21-1.29 0-2.26-.81-2.26-2.32 0-1.45.98-2.41 2.4-2.41.56 0 .93.12 1.09.2l-.15.49c-.22-.11-.54-.2-.92-.2-1.08 0-1.79.69-1.79 1.9 0 1.13.64 1.84 1.75 1.84.37 0 .74-.08.98-.19l.11.48M83.68 21.53c.57 0 1-.53 1-1.28 0-.56-.28-1.26-.98-1.26-.71 0-1.01.65-1.01 1.28 0 .72.41 1.26.99 1.26zm-.02.45c-.88 0-1.58-.65-1.58-1.69 0-1.1.73-1.75 1.64-1.75.94 0 1.58.69 1.58 1.69 0 1.22-.85 1.75-1.63 1.75h-.01zm0 0M88.81 21.01c0 .34.01.64.03.9h-.53l-.04-.54h-.01c-.15.26-.5.61-1.09.61-.51 0-1.14-.29-1.14-1.44v-1.93h.6v1.82c0 .63.2 1.06.74 1.06.4 0 .68-.28.79-.55.03-.09.05-.2.05-.31v-2.02h.6v2.4M89.8 19.51c0-.35 0-.62-.02-.89h.53l.03.53h.02c.16-.3.54-.61 1.08-.61.46 0 1.17.27 1.17 1.4v1.97h-.6v-1.9c0-.53-.2-.98-.77-.98-.38 0-.69.28-.8.61-.02.08-.04.19-.04.28v1.99h-.6v-2.4M95.93 21.79c-.16.08-.51.19-.95.19-.99 0-1.64-.67-1.64-1.68 0-1.02.69-1.76 1.77-1.76.35 0 .67.09.83.18l-.14.46c-.14-.08-.37-.16-.69-.16-.76 0-1.16.56-1.16 1.25 0 .76.49 1.23 1.14 1.23.34 0 .56-.08.73-.16l.11.45M97.22 21.91h-.6v-3.3h.6v3.3zm-.31-3.9c-.22 0-.37-.18-.37-.39 0-.21.15-.38.38-.38s.38.17.38.38-.15.39-.38.39h-.01zm0 0M98.22 21.91h.6v-4.83h-.6v4.83zm0 0M45.47 19.72l-35.2 11.07L0 2.86 36.95.79l8.52 18.93zm0 0"/><path fill="#fefefe" fill-rule="evenodd" d="M18.85 14.12c0 .71-.15 1.33-.47 1.87-.31.54-.75.99-1.32 1.34-.57.37-1.25.63-2.05.81-.8.18-1.69.27-2.66.27h-.72v3.6H7.06V10.02h5.36c2 0 3.58.34 4.72 1.02 1.14.67 1.71 1.7 1.71 3.08zm-4.39.05c0-1.04-.77-1.56-2.31-1.56h-.56v3.21h.51c.77 0 1.35-.13 1.75-.4.41-.26.61-.68.61-1.25zm0 0M30.16 22c-.7.13-1.5.2-2.39.2-1.26 0-2.39-.14-3.39-.43-.99-.29-1.83-.7-2.52-1.24a5.25 5.25 0 0 1-1.57-1.94c-.36-.77-.54-1.62-.54-2.56 0-.93.19-1.77.58-2.54.38-.76.92-1.41 1.61-1.96.7-.54 1.53-.96 2.49-1.26.96-.29 2.02-.44 3.18-.44.89 0 1.72.02 2.44.18.73.16.74.18 1.32.39l-.01 3.22c-.45-.26-.96-.47-1.52-.64-.56-.17-1.17-.25-1.81-.25-1.03 0-1.87.28-2.52.85-.65.57-.97 1.38-.97 2.43 0 .55.1 1.03.3 1.44.2.41.48.75.82 1.02.35.28.75.48 1.21.62.46.14.96.21 1.49.21.55 0 1.08-.06 1.61-.17.52-.12 1.08-.29 1.67-.51l.01 3c-.72.22-.78.25-1.49.38M33.52 22.01h4.6V10.02h-4.6v11.99zm0 0M38.62 6.26c0 .81-.27 1.45-.81 1.9-.53.46-1.19.69-1.98.69s-1.45-.23-1.98-.69c-.54-.45-.81-1.09-.81-1.9 0-.82.27-1.46.81-1.92.53-.46 1.19-.69 1.98-.69s1.45.23 1.98.69c.54.46.81 1.1.81 1.92"/></svg>