<svg height="29" width="115" xmlns="http://www.w3.org/2000/svg" viewBox="0 0 115 29"><path fill="#d1dcd9" fill-rule="evenodd" d="M49.63 10.46c-.62-.33-1.46-.56-2.47-.56-2.36 0-3.78 1.11-4.36 1.56l.85-5.03H40.3l-2.32 13.75h3.34l1.27-7.5c.84-.64 1.86-1.18 2.97-1.18.58 0 1.07.17 1.4.46.61.55.5 1.37.34 2.3l-1 5.92h3.35l1.11-6.6c.15-.88.39-2.26-1.13-3.12zm8.86-.68c-3.82 0-5.12 1.72-5.83 2.67l.8.33c.59-.52 1.66-1.48 3.79-1.48.96 0 2.35.25 2.78 1.31.16.41.16.86.12 1.29h.07l-.53 3.1h-.06l-.19 1.16c-.71.33-1.58.72-2.76.72-1.69 0-2.16-.92-2.02-1.77.22-1.27 1.63-1.87 3.11-1.87.46 0 .85.05 1.21.12l.24-1.44c-.61-.13-1.24-.22-2.07-.22-2.99 0-5.65 1.28-6.04 3.58-.3 1.79 1.12 3.19 3.74 3.19 2.38 0 3.81-.97 4.44-1.42l-.19 1.13h3.24l1.02-6.02c.15-.91.35-2.24-.74-3.23-.63-.58-1.94-1.15-4.13-1.15zm29.34 9.55c-.25 0-1.26 0-1.71-.88-.2-.33-.28-.74-.14-1.58l.77-4.54h3.65l.36-2.12h-3.65l.46-2.71h-3.35l-.46 2.71h-3.52l-3.05 4.97-.54.93c-.18-.52-.19-.62-.37-1.09l-1.75-4.81h-1.1l-4.34 5.88c-.1-.48-.13-.6-.23-1.05l-1.29-4.83h-3.5l3.08 10.05h1.23l4.38-5.8 2.41 5.8h1.21l5.17-7.93h1.85l-.83 4.95c-.15.88-.18 1.75.64 2.45.85.76 2.17.82 2.78.82 1.66 0 2.64-.45 3.45-.8l-.3-.62c-.41.1-.78.2-1.31.2zm6.91-5.4c-.04.07-.14.28-.25.93-.05.25-.07.44-.08.59h8.93c.15-1.09.44-2.94-1.1-4.34-1.36-1.21-3.35-1.35-4.46-1.35-4.55 0-7.36 2.38-7.86 5.3-.52 3.06 1.5 5.53 6.13 5.53 4.43 0 5.81-2.04 6.54-3.13l-.77-.32c-1.03.88-2.12 1.8-4.46 1.8-3.41 0-3.86-2.03-3.92-3.07-.02-.04-.08-.24.04-.94.11-.7.26-.97.29-1.02.54-1.15 1.27-2.51 3.66-2.51 2.52 0 2.52 1.63 2.52 2.53h-5.21zM35.21 7.5h-3.35l-1.65 9.78c-.15.88-.17 1.75.64 2.45.85.76 2.17.82 2.78.82 1.66 0 2.64-.45 3.45-.8l-.29-.62c-.42.1-.79.2-1.32.2-.25 0-1.26 0-1.71-.88-.2-.33-.28-.74-.14-1.58l.77-4.54h2.71l.35-2.11h-2.7l.46-2.72zm0 0M13.4.73C6.33.73.61 6.45.61 13.51S6.33 26.3 13.4 26.3c7.06 0 12.78-5.73 12.78-12.79C26.18 6.45 20.46.73 13.4.73zm0 23.03c-5.66 0-10.25-4.59-10.25-10.25S7.74 3.27 13.4 3.27s10.24 4.58 10.24 10.24-4.58 10.25-10.24 10.25zm1.23-16.49h-3.34l-1.66 9.78c-.15.88-.17 1.75.64 2.46.86.76 2.18.81 2.78.81 1.66 0 2.64-.44 3.46-.79l-.3-.63c-.42.1-.79.2-1.31.2-.26 0-1.26 0-1.72-.88-.19-.33-.27-.74-.13-1.58l.77-4.54h2.7l.36-2.1h-2.71l.46-2.73zm0 0M105.05 8.44h-.84v2.16h-.7V8.44h-.84v-.52h2.38v.52zm3.23 2.16h-.69V8.8l-.5 1.17h-.47l-.5-1.17v1.8h-.66V7.92h.81l.61 1.35.59-1.35h.81v2.68zm0 0M112.08 22.54h-.63v1.63h-.52v-1.63h-.63v-.39h1.78v.39zm2.7 1.63h-.53v-1.35l-.37.87h-.36l-.37-.87v1.35h-.49v-2.02h.61l.45 1.01.45-1.01h.61v2.02zm0 0M63.57 23.15c-.29 0-.56.2-.59.44-.02.12.03.23.12.31.09.08.22.13.36.13.29 0 .55-.2.58-.44.03-.24-.19-.44-.47-.44zm-1 4.31h.95l.37-3.04h-.95l-.37 3.04zm3.31-3.86h-.95l-.1.82h-.58l-.06.48h.58l-.21 1.68c-.03.27-.03.53.21.75.25.23.63.25.8.25.47 0 .74-.14.97-.25l-.09-.19c-.12.03-.22.06-.37.06-.07 0-.36 0-.5-.26-.06-.11-.08-.23-.05-.49l.19-1.55h.83l.06-.48h-.83l.1-.82zm1.5-.33l-.62 1.68.28.06 1.37-1.74h-1.03zm1.82 1.48c.72 0 .86.31.91.42l.25-.06a.675.675 0 0 0-.22-.48c-.21-.2-.56-.34-1.04-.34-1.07 0-1.6.54-1.66 1.02-.07.56.46.73.6.77.15.05.31.08.47.11.46.09.68.16.76.36.02.05.03.1.02.15 0 .02-.03.29-.45.4-.12.04-.24.04-.36.04-.4 0-.72-.11-.9-.28a.56.56 0 0 1-.16-.24l-.25.05c0 .14.02.36.23.57.14.13.48.35 1.19.35 1.05 0 1.62-.49 1.68-1.02.03-.26-.05-.48-.21-.63-.18-.18-.45-.25-.65-.29-.13-.03-.26-.05-.39-.07-.31-.08-.63-.15-.6-.43.02-.19.26-.4.78-.4zm9.77-1.15h-.94l-.11.82h-.57l-.06.48h.58l-.21 1.68c-.03.27-.03.53.21.75.25.23.62.25.79.25.47 0 .75-.14.97-.25l-.09-.19c-.12.03-.22.06-.37.06-.07 0-.35 0-.49-.26-.06-.11-.09-.23-.06-.49l.19-1.55h.84l.06-.48h-.84l.1-.82zm2.14 1.2l.05-.38h-.96l-.37 3.04h.95l.29-2.35c.18-.09.41-.21.75-.21.27 0 .44.07.61.14l.09-.69c-.09-.01-.18-.02-.27-.02-.65 0-.98.32-1.14.47zm3.76 1.94c-.22.19-.48.34-.79.34-.47 0-.62-.28-.57-.67l.24-1.99h-.95l-.26 2.1c-.04.27-.13 1.04 1.1 1.04.66 0 .98-.29 1.19-.47l-.05.37h.95l.38-3.04h-.96l-.28 2.32zm3.46-1.99c.72 0 .86.31.91.42l.26-.06a.655.655 0 0 0-.23-.48c-.2-.2-.55-.34-1.04-.34-1.06 0-1.6.54-1.66 1.02-.06.56.46.73.6.77.16.05.32.08.48.11.45.09.68.16.76.36.02.05.02.1.02.15 0 .02-.04.29-.45.4-.13.04-.25.04-.36.04-.4 0-.73-.11-.91-.28-.09-.08-.12-.16-.15-.24l-.26.05c0 .14.02.36.24.57.14.13.47.35 1.19.35 1.04 0 1.61-.49 1.68-1.02a.752.752 0 0 0-.21-.63c-.19-.18-.46-.25-.65-.29a4.75 4.75 0 0 0-.4-.07c-.31-.08-.63-.15-.59-.43.02-.19.25-.4.77-.4zm3.11-1.15h-.95l-.1.82h-.57l-.06.48h.57l-.2 1.68c-.03.27-.03.53.21.75.25.23.62.25.79.25.47 0 .75-.14.97-.25l-.09-.19c-.12.03-.22.06-.37.06-.07 0-.36 0-.49-.26-.06-.11-.09-.23-.06-.49l.19-1.55h.84l.05-.48h-.83l.1-.82zm4.1 0h-.94l-.11.82h-.57l-.06.48h.58l-.21 1.68c-.03.27-.03.53.21.75.25.23.62.25.79.25.47 0 .75-.14.97-.25l-.09-.19a1.3 1.3 0 0 1-.37.06c-.07 0-.35 0-.49-.26-.06-.11-.09-.23-.06-.49l.19-1.55h.84l.06-.48h-.84l.1-.82zm4.06.9c-.18-.1-.42-.17-.71-.17-.67 0-1.06.34-1.22.47l.19-1.53h-.95l-.51 4.19h.95l.28-2.28c.23-.2.51-.37.82-.37.17 0 .31.06.41.15.18.16.15.41.12.7l-.22 1.8h.94l.25-2.01c.03-.27.09-.69-.35-.95zm1.87-1.35c-.29 0-.56.2-.59.44-.01.12.03.23.12.31.09.08.22.13.36.13.3 0 .56-.2.59-.44.02-.24-.19-.44-.48-.44zm-1 4.31h.95l.37-3.04h-.95l-.37 3.04zm4.23-3.13c-.69 0-1.04.31-1.25.49l.05-.4h-.94l-.38 3.04h.95l.28-2.26c.18-.15.44-.37.83-.37.35 0 .5.18.54.35.02.1.01.21 0 .31l-.25 1.97h.96l.25-2.05c.03-.26.05-.56-.19-.8-.18-.16-.47-.28-.85-.28zm4.46.09l-.04.33c-.13-.15-.38-.46-1.04-.46-.9 0-1.65.61-1.77 1.56-.12.99.59 1.49 1.31 1.49.4 0 .79-.14 1.04-.32.07-.04.14-.1.2-.16-.04.37-.09.78-.47 1.07-.12.09-.41.27-.89.27-.4 0-.69-.14-.86-.29-.06-.07-.11-.14-.2-.26l-.24.09c.03.14.06.36.27.55.24.22.69.38 1.26.38.59 0 1.14-.17 1.47-.42.47-.35.54-.83.59-1.23l.32-2.6h-.95zm-.26 2.1c-.14.12-.43.34-.84.34-.44 0-.82-.33-.74-1.01.09-.69.5-1.08 1.03-1.08.43 0 .6.23.72.4l-.17 1.35zm-34.99-2.23c-1.08 0-1.43.52-1.63.82l.24.1c.16-.16.45-.45 1.06-.45.27 0 .66.07.79.39.06.15.06.31.05.47-.28-.07-.5-.13-.85-.13-.85 0-1.59.39-1.67 1.09-.07.55.35.97 1.09.97.68 0 1.07-.29 1.24-.43l-.04.34h.92l.22-1.83c.04-.28.08-.68-.24-.99-.18-.18-.56-.35-1.18-.35zm.36 2.56c-.2.1-.44.22-.78.22-.48 0-.62-.28-.59-.54.05-.39.44-.57.86-.57.24 0 .42.05.6.11l-.09.78zm0 0"/></svg>