<svg height="21" width="64" xmlns="http://www.w3.org/2000/svg" viewBox="0 0 64 21"><path fill="#1c548e" fill-rule="evenodd" d="M18.4.65l-4.95 13.56-.53-2.75C11.69 8.08 9.02 4.53 5.9 3.1l4.54 17.41h5.36L23.76.65H18.4M22.65 20.53L25.82.63h5.06l-3.17 19.9h-5.06M46.08 1.12c-1-.4-2.58-.83-4.54-.83-5.01 0-8.53 2.7-8.56 6.56-.03 2.86 2.52 4.46 4.43 5.41 1.98.97 2.64 1.6 2.63 2.47-.02 1.33-1.58 1.94-3.03 1.94-2.02 0-3.1-.3-4.76-1.04l-.66-.32-.71 4.45c1.19.56 3.38 1.04 5.65 1.06 5.31 0 8.77-2.67 8.81-6.79.02-2.27-1.33-3.99-4.25-5.41-1.77-.92-2.86-1.53-2.84-2.47 0-.82.91-1.71 2.9-1.71 1.65-.02 2.85.36 3.79.77l.45.23.69-4.32M59.06.65h-3.91c-1.21 0-2.12.35-2.66 1.65l-7.51 18.24h5.31s.87-2.46 1.07-3c.58 0 5.74.02 6.48.02.16.69.62 2.98.62 2.98h4.7L59.06.65zm-6.24 12.82c.42-1.14 2.01-5.56 2.01-5.56-.03.06.42-1.15.68-1.89l.33 1.71s.98 4.75 1.18 5.74h-4.2zm0 0"/><path fill="#e79f3f" fill-rule="evenodd" d="M8.85.64H.69L.64.98c6.35 1.65 10.54 5.7 12.28 10.48l-1.77-9.14C10.84 1.06 9.95.69 8.85.64"/></svg>