<svg height="17" width="17" xmlns="http://www.w3.org/2000/svg" viewBox="0 0 17 17"><path fill="#7997bf" fill-rule="evenodd" d="M12.26 4.26a.84.84 0 0 1-.83-.85V1.35c0-.47.37-.85.83-.85.46 0 .83.38.83.85v2.06c0 .47-.37.85-.83.85zm-8.09 0c-.46 0-.84-.38-.84-.85V1.35c0-.47.38-.85.84-.85.46 0 .83.38.83.85v2.06c0 .47-.37.85-.83.85zm9.64-2.06v1.11c0 .79-.53 1.53-1.29 1.65-.97.17-1.81-.6-1.81-1.57V2.2c0-.26-.21-.47-.46-.47H6.17a.46.46 0 0 0-.45.47v1.11c0 .79-.53 1.53-1.29 1.65-.97.17-1.81-.6-1.81-1.57V2.2c0-.26-.21-.47-.46-.47h-.79c-.6 0-1.1.51-1.1 1.13v12.47c0 .63.5 1.14 1.1 1.14h13.6c.61 0 1.1-.51 1.1-1.14V2.86c0-.62-.49-1.13-1.1-1.13h-.7c-.25 0-.46.21-.46.47zm.33 12.77H2.19a.47.47 0 0 1-.46-.48V6.2c0-.26.2-.47.46-.47h11.95c.25 0 .46.21.46.47v8.29c0 .26-.21.48-.46.48zM7.23 9.99h-.97a.66.66 0 0 1-.65-.67v-1c0-.37.29-.66.65-.66h.97c.36 0 .65.29.65.66v1c0 .37-.29.67-.65.67zm2.84 0h-.98a.66.66 0 0 1-.65-.67v-1c0-.37.29-.66.65-.66h.98c.35 0 .64.29.64.66v1c0 .37-.29.67-.64.67zm2.83 0h-.98c-.35 0-.64-.3-.64-.67v-1c0-.37.29-.66.64-.66h.98c.36 0 .65.29.65.66v1c0 .37-.29.67-.65.67zM7.23 12.9h-.97c-.36 0-.65-.3-.65-.66v-1.01c0-.36.29-.66.65-.66h.97c.36 0 .65.3.65.66v1.01c0 .36-.29.66-.65.66zm-2.83 0h-.98c-.35 0-.64-.3-.64-.66v-1.01c0-.36.29-.66.64-.66h.98c.36 0 .64.3.64.66v1.01c0 .36-.28.66-.64.66zm5.67 0h-.98c-.36 0-.65-.3-.65-.66v-1.01c0-.36.29-.66.65-.66h.98c.35 0 .64.3.64.66v1.01c0 .36-.29.66-.64.66zm2.83 0h-.98c-.35 0-.64-.3-.64-.66v-1.01c0-.36.29-.66.64-.66h.98c.36 0 .65.3.65.66v1.01c0 .36-.29.66-.65.66zm0 0"/></svg>